<svg xmlns="http://www.w3.org/2000/svg" version="1.1" xmlns:xlink="http://www.w3.org/1999/xlink" xmlns:svgjs="http://svgjs.dev/svgjs" width="1500" height="1500" viewBox="0 0 1500 1500"><rect width="1500" height="1500" fill="#000000"></rect><g transform="matrix(0.6666666666666666,0,0,0.6666666666666666,249.39393939393938,658.9222046406312)"><svg viewBox="0 0 396 72" data-background-color="#ffffff" preserveAspectRatio="xMidYMid meet" height="272" width="1500" xmlns="http://www.w3.org/2000/svg" xmlns:xlink="http://www.w3.org/1999/xlink"><g id="tight-bounds" transform="matrix(1,0,0,1,0.2400000000000091,0.1632422750435012)"><svg viewBox="0 0 395.52 71.67351544991297" height="71.67351544991297" width="395.52"><g><svg viewBox="0 0 498.8269919125605 90.39412447329723" height="71.67351544991297" width="395.52"><g transform="matrix(1,0,0,1,103.3069919125605,12.492965104486089)"><svg viewBox="0 0 395.52 65.40819426432505" height="65.40819426432505" width="395.52"><g id="textblocktransform"><svg viewBox="0 0 395.52 65.40819426432505" height="65.40819426432505" width="395.52" id="textblock"><g><svg viewBox="0 0 395.52 42.41570258676719" height="42.41570258676719" width="395.52"><g transform="matrix(1,0,0,1,0,0)"><svg width="395.52" viewBox="5.35 -40.4 384.60999999999996 41.25" height="42.41570258676719" data-palette-color="#6ee2f5"><path d="M5.35 0L5.35-37.9 10.2-37.9 10.2 0 5.35 0ZM33.2-28.25Q38.3-28.25 40.77-25.55 43.25-22.85 43.25-16.65L43.25-16.65 43.25 0 38.55 0 38.55-16.65Q38.55-20.55 37.22-22.2 35.9-23.85 32.55-23.85L32.55-23.85Q28.65-23.85 24.75-20.45L24.75-20.45 24.75 0 20.05 0 20.05-27.65 24.75-27.65 24.75-24.7Q28.85-28.25 33.2-28.25L33.2-28.25ZM70-27.65L74.9-27.65 64.45 0.45 59.05 0.45 48.5-27.65 53.4-27.65 61.75-4.75 70-27.65ZM80.39-32.85L80.39-40.4 85.09-40.4 85.09-32.85 80.39-32.85ZM80.39 0L80.39-27.65 85.09-27.65 85.09 0 80.39 0ZM106.14-22.95L99.74-22.95 99.74-7.15Q99.74-5.15 100.37-4.42 100.99-3.7 102.69-3.7L102.69-3.7Q104.19-3.7 105.89-4.1L105.89-4.1 105.89 0.15Q103.64 0.65 101.89 0.65L101.89 0.65Q98.09 0.65 96.57-0.9 95.04-2.45 95.04-6.1L95.04-6.1 95.04-22.95 91.44-22.95 91.44-27.3 95.04-27.3 95.04-36.8 99.74-36.8 99.74-27.3 106.14-27.3 106.14-22.95ZM121.24-27.65Q125.64-27.65 127.94-26.18 130.24-24.7 130.99-22.23 131.74-19.75 131.74-16L131.74-16 131.74 0 127.04 0 127.04-2.75Q125.14-0.95 123.24-0.15 121.34 0.65 119.14 0.65L119.14 0.65Q116.54 0.65 114.44-0.48 112.34-1.6 111.11-3.73 109.89-5.85 109.89-8.75L109.89-8.75Q109.89-13.25 112.69-15.73 115.49-18.2 120.24-18.2L120.24-18.2Q123.99-18.2 126.99-16.55L126.99-16.55Q126.94-19 126.49-20.45 126.04-21.9 124.64-22.68 123.24-23.45 120.49-23.45L120.49-23.45 116.79-23.45 116.79-27.65 121.24-27.65ZM119.79-3.4Q121.49-3.4 123.36-4.2 125.24-5 127.04-6.6L127.04-6.6 127.04-12.9Q124.24-14.3 120.94-14.3L120.94-14.3Q118.29-14.3 116.49-13.03 114.69-11.75 114.69-8.75L114.69-8.75Q114.69-5.95 116.21-4.67 117.74-3.4 119.79-3.4L119.79-3.4ZM151.19 0.85Q144.74 0.8 141.26-3.15 137.79-7.1 137.79-13.85L137.79-13.85Q137.79-20.6 141.26-24.5 144.74-28.4 151.19-28.45L151.19-28.45Q153.44-28.45 155.06-28.13 156.69-27.8 158.54-27.05L158.54-27.05 158.54-22.5Q156.74-23.35 155.11-23.7 153.49-24.05 151.54-24.05L151.54-24.05Q146.89-24 144.79-21.28 142.69-18.55 142.69-13.9L142.69-13.9Q142.69-9.15 144.79-6.35 146.89-3.55 151.44-3.5L151.44-3.5Q154.99-3.5 159.19-5.65L159.19-5.65 160.69-1.55Q156.14 0.85 151.19 0.85L151.19 0.85ZM166.78-32.85L166.78-40.4 171.48-40.4 171.48-32.85 166.78-32.85ZM166.78 0L166.78-27.65 171.48-27.65 171.48 0 166.78 0ZM192.43 0.85Q188.03 0.85 184.96-1.07 181.88-3 180.33-6.33 178.78-9.65 178.78-13.8L178.78-13.8Q178.78-17.95 180.33-21.28 181.88-24.6 184.96-26.53 188.03-28.45 192.43-28.45L192.43-28.45Q196.83-28.45 199.91-26.53 202.98-24.6 204.51-21.28 206.03-17.95 206.03-13.8L206.03-13.8Q206.03-9.65 204.51-6.33 202.98-3 199.91-1.07 196.83 0.85 192.43 0.85L192.43 0.85ZM192.43-3.4Q196.58-3.4 198.86-6.3 201.13-9.2 201.13-13.8L201.13-13.8Q201.13-18.4 198.86-21.28 196.58-24.15 192.43-24.15L192.43-24.15Q188.28-24.15 185.98-21.28 183.68-18.4 183.68-13.8L183.68-13.8Q183.68-9.2 185.98-6.3 188.28-3.4 192.43-3.4L192.43-3.4ZM226.48-28.25Q231.58-28.25 234.05-25.55 236.53-22.85 236.53-16.65L236.53-16.65 236.53 0 231.83 0 231.83-16.65Q231.83-20.55 230.5-22.2 229.18-23.85 225.83-23.85L225.83-23.85Q221.93-23.85 218.03-20.45L218.03-20.45 218.03 0 213.33 0 213.33-27.65 218.03-27.65 218.03-24.7Q222.13-28.25 226.48-28.25L226.48-28.25ZM248.48-13.45Q248.58-8.85 250.78-6.1 252.98-3.35 257.78-3.35L257.78-3.35Q261.43-3.35 265.78-5.4L265.78-5.4 267.23-1.5Q262.68 0.85 257.38 0.85L257.38 0.85Q252.98 0.85 249.88-1 246.78-2.85 245.18-6.15 243.58-9.45 243.58-13.85L243.58-13.85Q243.58-18.5 245.25-21.78 246.93-25.05 249.78-26.75 252.63-28.45 256.18-28.45L256.18-28.45Q261.63-28.45 264.73-25.05 267.83-21.65 267.83-15.3L267.83-15.3 267.83-13.45 248.48-13.45ZM256.18-24.25Q249.98-24.25 248.78-17.4L248.78-17.4 262.88-17.4Q262.63-20.9 260.98-22.58 259.33-24.25 256.18-24.25L256.18-24.25ZM282.92 0.85Q279.87 0.85 277.52 0.35 275.17-0.15 272.62-1.35L272.62-1.35 272.62-6Q277.37-3.35 282.92-3.35L282.92-3.35Q285.72-3.35 286.95-4.48 288.17-5.6 288.17-7.45L288.17-7.45Q288.17-9.25 287.2-10.1 286.22-10.95 284.02-11.55L284.02-11.55 280.77-12.35Q277.27-13.2 275.27-15.05 273.27-16.9 273.27-20.5L273.27-20.5Q273.27-24.25 275.72-26.35 278.17-28.45 282.92-28.45L282.92-28.45Q285.37-28.45 287.47-27.98 289.57-27.5 291.67-26.65L291.67-26.65 291.67-22.25Q289.62-23.2 287.62-23.73 285.62-24.25 283.07-24.25L283.07-24.25Q280.42-24.25 279.25-23.23 278.07-22.2 278.07-20.65L278.07-20.65Q278.07-18.95 279.1-18.07 280.12-17.2 282.07-16.7L282.07-16.7 285.37-15.95Q287.87-15.35 289.5-14.45 291.12-13.55 292.05-11.93 292.97-10.3 292.97-7.6L292.97-7.6Q292.97-3.55 290.25-1.35 287.52 0.85 282.92 0.85L282.92 0.85ZM325.32-37.9Q337.72-37.9 337.72-26.6L337.72-26.6Q337.72-21.1 334.62-18.23 331.52-15.35 325.32-15.35L325.32-15.35 316.92-15.35 316.92 0 312.07 0 312.07-37.9 325.32-37.9ZM332.77-26.6Q332.77-30.3 330.92-31.98 329.07-33.65 325.32-33.65L325.32-33.65 316.92-33.65 316.92-19.65 325.32-19.65Q332.72-19.65 332.77-26.6L332.77-26.6ZM357.27-28.25L358.42-28.25 358.42-23.85 357.27-23.85Q352.97-23.85 348.92-20.4L348.92-20.4 348.92 0 344.22 0 344.22-27.65 348.92-27.65 348.92-24.55Q353.02-28.25 357.27-28.25L357.27-28.25ZM376.36 0.85Q371.96 0.85 368.89-1.07 365.81-3 364.26-6.33 362.71-9.65 362.71-13.8L362.71-13.8Q362.71-17.95 364.26-21.28 365.81-24.6 368.89-26.53 371.96-28.45 376.36-28.45L376.36-28.45Q380.76-28.45 383.84-26.53 386.91-24.6 388.44-21.28 389.96-17.95 389.96-13.8L389.96-13.8Q389.96-9.65 388.44-6.33 386.91-3 383.84-1.07 380.76 0.85 376.36 0.85L376.36 0.85ZM376.36-3.4Q380.51-3.4 382.79-6.3 385.06-9.2 385.06-13.8L385.06-13.8Q385.06-18.4 382.79-21.28 380.51-24.15 376.36-24.15L376.36-24.15Q372.21-24.15 369.91-21.28 367.61-18.4 367.61-13.8L367.61-13.8Q367.61-9.2 369.91-6.3 372.21-3.4 376.36-3.4L376.36-3.4Z" opacity="1" transform="matrix(1,0,0,1,0,0)" fill="#ffffff" class="wordmark-text-0" data-fill-palette-color="primary" id="text-0"></path></svg></g></svg></g><g transform="matrix(1,0,0,1,0,52.42903199064084)"><svg viewBox="0 0 232.209792 12.979162273684208" height="12.979162273684208" width="232.209792"><g transform="matrix(1,0,0,1,0,0)"><svg width="232.209792" viewBox="4.35 -35.9 812.17 45.4" height="12.979162273684208" data-palette-color="url(#42c3c3b7-3dff-4010-ba6f-18a760faa11c)"></svg></g></svg></g></svg></g></svg></g><g><svg viewBox="0 0 93.29366250868685 90.39412447329723" height="90.39412447329723" width="93.29366250868685"><g><svg version="1.1" xmlns:rdf="http://www.w3.org/1999/02/22-rdf-syntax-ns#" xmlns:cc="http://creativecommons.org/ns#" xmlns:sodipodi="http://sodipodi.sourceforge.net/DTD/sodipodi-0.dtd" xmlns:dc="http://purl.org/dc/elements/1.1/" xmlns:inkscape="http://www.inkscape.org/namespaces/inkscape" xmlns:svg="http://www.w3.org/2000/svg" xmlns="http://www.w3.org/2000/svg" xmlns:xlink="http://www.w3.org/1999/xlink" x="0" y="0" viewBox="0 1.554 100.00099999999999 96.893" enable-background="new 0 1.554 100 96.893" xml:space="preserve" width="93.29366250868685" height="90.39412447329723" class="icon-icon-0" data-fill-palette-color="accent" id="icon-0"></svg></g></svg></g></svg></g><defs></defs><mask id="42eb32b1-f09e-47d4-8510-5cd87d8d86b3"><g id="SvgjsG1083"><svg viewBox="0 0 395.52 71.67351544991297" height="71.67351544991297" width="395.52"><g><svg viewBox="0 0 498.8269919125605 90.39412447329723" height="71.67351544991297" width="395.52"><g transform="matrix(1,0,0,1,103.3069919125605,12.492965104486089)"><svg viewBox="0 0 395.52 65.40819426432505" height="65.40819426432505" width="395.52"><g id="SvgjsG1082"><svg viewBox="0 0 395.52 65.40819426432505" height="65.40819426432505" width="395.52" id="SvgjsSvg1081"><g><svg viewBox="0 0 395.52 42.41570258676719" height="42.41570258676719" width="395.52"><g transform="matrix(1,0,0,1,0,0)"><svg width="395.52" viewBox="5.35 -40.4 384.60999999999996 41.25" height="42.41570258676719" data-palette-color="#6ee2f5"><path d="M5.35 0L5.35-37.9 10.2-37.9 10.2 0 5.35 0ZM33.2-28.25Q38.3-28.25 40.77-25.55 43.25-22.85 43.25-16.65L43.25-16.65 43.25 0 38.55 0 38.55-16.65Q38.55-20.55 37.22-22.2 35.9-23.85 32.55-23.85L32.55-23.85Q28.65-23.85 24.75-20.45L24.75-20.45 24.75 0 20.05 0 20.05-27.65 24.75-27.65 24.75-24.7Q28.85-28.25 33.2-28.25L33.2-28.25ZM70-27.65L74.9-27.65 64.45 0.45 59.05 0.45 48.5-27.65 53.4-27.65 61.75-4.75 70-27.65ZM80.39-32.85L80.39-40.4 85.09-40.4 85.09-32.85 80.39-32.85ZM80.39 0L80.39-27.65 85.09-27.65 85.09 0 80.39 0ZM106.14-22.95L99.74-22.95 99.74-7.15Q99.74-5.15 100.37-4.42 100.99-3.7 102.69-3.7L102.69-3.7Q104.19-3.7 105.89-4.1L105.89-4.1 105.89 0.15Q103.64 0.65 101.89 0.65L101.89 0.65Q98.09 0.65 96.57-0.9 95.04-2.45 95.04-6.1L95.04-6.1 95.04-22.95 91.44-22.95 91.44-27.3 95.04-27.3 95.04-36.8 99.74-36.8 99.74-27.3 106.14-27.3 106.14-22.95ZM121.24-27.65Q125.64-27.65 127.94-26.18 130.24-24.7 130.99-22.23 131.74-19.75 131.74-16L131.74-16 131.74 0 127.04 0 127.04-2.75Q125.14-0.95 123.24-0.15 121.34 0.65 119.14 0.65L119.14 0.65Q116.54 0.65 114.44-0.48 112.34-1.6 111.11-3.73 109.89-5.85 109.89-8.75L109.89-8.75Q109.89-13.25 112.69-15.73 115.49-18.2 120.24-18.2L120.24-18.2Q123.99-18.2 126.99-16.55L126.99-16.55Q126.94-19 126.49-20.45 126.04-21.9 124.64-22.68 123.24-23.45 120.49-23.45L120.49-23.45 116.79-23.45 116.79-27.65 121.24-27.65ZM119.79-3.4Q121.49-3.4 123.36-4.2 125.24-5 127.04-6.6L127.04-6.6 127.04-12.9Q124.24-14.3 120.94-14.3L120.94-14.3Q118.29-14.3 116.49-13.03 114.69-11.75 114.69-8.75L114.69-8.75Q114.69-5.95 116.21-4.67 117.74-3.4 119.79-3.4L119.79-3.4ZM151.19 0.85Q144.74 0.8 141.26-3.15 137.79-7.1 137.79-13.85L137.79-13.85Q137.79-20.6 141.26-24.5 144.74-28.4 151.19-28.45L151.19-28.45Q153.44-28.45 155.06-28.13 156.69-27.8 158.54-27.05L158.54-27.05 158.54-22.5Q156.74-23.35 155.11-23.7 153.49-24.05 151.54-24.05L151.54-24.05Q146.89-24 144.79-21.28 142.69-18.55 142.69-13.9L142.69-13.9Q142.69-9.15 144.79-6.35 146.89-3.55 151.44-3.5L151.44-3.5Q154.99-3.5 159.19-5.65L159.19-5.65 160.69-1.55Q156.14 0.85 151.19 0.85L151.19 0.85ZM166.78-32.85L166.78-40.4 171.48-40.4 171.48-32.85 166.78-32.85ZM166.78 0L166.78-27.65 171.48-27.65 171.48 0 166.78 0ZM192.43 0.85Q188.03 0.85 184.96-1.07 181.88-3 180.33-6.33 178.78-9.65 178.78-13.8L178.78-13.8Q178.78-17.95 180.33-21.28 181.88-24.6 184.96-26.53 188.03-28.45 192.43-28.45L192.43-28.45Q196.83-28.45 199.91-26.53 202.98-24.6 204.51-21.28 206.03-17.95 206.03-13.8L206.03-13.8Q206.03-9.65 204.51-6.33 202.98-3 199.91-1.07 196.83 0.85 192.43 0.85L192.43 0.85ZM192.43-3.4Q196.58-3.4 198.86-6.3 201.13-9.2 201.13-13.8L201.13-13.8Q201.13-18.4 198.86-21.28 196.58-24.15 192.43-24.15L192.43-24.15Q188.28-24.15 185.98-21.28 183.68-18.4 183.68-13.8L183.68-13.8Q183.68-9.2 185.98-6.3 188.28-3.4 192.43-3.4L192.43-3.4ZM226.48-28.25Q231.58-28.25 234.05-25.55 236.53-22.85 236.53-16.65L236.53-16.65 236.53 0 231.83 0 231.83-16.65Q231.83-20.55 230.5-22.2 229.18-23.85 225.83-23.85L225.83-23.85Q221.93-23.85 218.03-20.45L218.03-20.45 218.03 0 213.33 0 213.33-27.65 218.03-27.65 218.03-24.7Q222.13-28.25 226.48-28.25L226.48-28.25ZM248.48-13.45Q248.58-8.85 250.78-6.1 252.98-3.35 257.78-3.35L257.78-3.35Q261.43-3.35 265.78-5.4L265.78-5.4 267.23-1.5Q262.68 0.85 257.38 0.85L257.38 0.85Q252.98 0.85 249.88-1 246.78-2.85 245.18-6.15 243.58-9.45 243.58-13.85L243.58-13.85Q243.58-18.5 245.25-21.78 246.93-25.05 249.78-26.75 252.63-28.45 256.18-28.45L256.18-28.45Q261.63-28.45 264.73-25.05 267.83-21.65 267.83-15.3L267.83-15.3 267.83-13.45 248.48-13.45ZM256.18-24.25Q249.98-24.25 248.78-17.4L248.78-17.4 262.88-17.4Q262.63-20.9 260.98-22.58 259.33-24.25 256.18-24.25L256.18-24.25ZM282.92 0.85Q279.87 0.85 277.52 0.35 275.17-0.15 272.62-1.35L272.62-1.35 272.62-6Q277.37-3.35 282.92-3.35L282.92-3.35Q285.72-3.35 286.95-4.48 288.17-5.6 288.17-7.45L288.17-7.45Q288.17-9.25 287.2-10.1 286.22-10.95 284.02-11.55L284.02-11.55 280.77-12.35Q277.27-13.2 275.27-15.05 273.27-16.9 273.27-20.5L273.27-20.5Q273.27-24.25 275.72-26.35 278.17-28.45 282.92-28.45L282.92-28.45Q285.37-28.45 287.47-27.98 289.57-27.5 291.67-26.65L291.67-26.65 291.67-22.25Q289.62-23.2 287.62-23.73 285.62-24.25 283.07-24.25L283.07-24.25Q280.42-24.25 279.25-23.23 278.07-22.2 278.07-20.65L278.07-20.65Q278.07-18.95 279.1-18.07 280.12-17.2 282.07-16.7L282.07-16.7 285.37-15.95Q287.87-15.35 289.5-14.45 291.12-13.55 292.05-11.93 292.97-10.3 292.97-7.6L292.97-7.6Q292.97-3.55 290.25-1.35 287.52 0.85 282.92 0.85L282.92 0.85ZM325.32-37.9Q337.72-37.9 337.72-26.6L337.72-26.6Q337.72-21.1 334.62-18.23 331.52-15.35 325.32-15.35L325.32-15.35 316.92-15.35 316.92 0 312.07 0 312.07-37.9 325.32-37.9ZM332.77-26.6Q332.77-30.3 330.92-31.98 329.07-33.65 325.32-33.65L325.32-33.65 316.92-33.65 316.92-19.65 325.32-19.65Q332.72-19.65 332.77-26.6L332.77-26.6ZM357.27-28.25L358.42-28.25 358.42-23.85 357.27-23.85Q352.97-23.85 348.92-20.4L348.92-20.4 348.92 0 344.22 0 344.22-27.65 348.92-27.65 348.92-24.55Q353.02-28.25 357.27-28.25L357.27-28.25ZM376.36 0.85Q371.96 0.85 368.89-1.07 365.81-3 364.26-6.33 362.71-9.65 362.71-13.8L362.71-13.8Q362.71-17.95 364.26-21.28 365.81-24.6 368.89-26.53 371.96-28.45 376.36-28.45L376.36-28.45Q380.76-28.45 383.84-26.53 386.91-24.6 388.44-21.28 389.96-17.95 389.96-13.8L389.96-13.8Q389.96-9.65 388.44-6.33 386.91-3 383.84-1.07 380.76 0.85 376.36 0.85L376.36 0.85ZM376.36-3.4Q380.51-3.4 382.79-6.3 385.06-9.2 385.06-13.8L385.06-13.8Q385.06-18.4 382.79-21.28 380.51-24.15 376.36-24.15L376.36-24.15Q372.21-24.15 369.91-21.28 367.61-18.4 367.61-13.8L367.61-13.8Q367.61-9.2 369.91-6.3 372.21-3.4 376.36-3.4L376.36-3.4Z" opacity="1" transform="matrix(1,0,0,1,0,0)" fill="black" class="wordmark-text-0" id="SvgjsPath1080"></path></svg></g></svg></g><g transform="matrix(1,0,0,1,0,52.42903199064084)"><svg viewBox="0 0 232.209792 12.979162273684208" height="12.979162273684208" width="232.209792"><g transform="matrix(1,0,0,1,0,0)"><svg width="232.209792" viewBox="4.35 -35.9 812.17 45.4" height="12.979162273684208" data-palette-color="url(#42c3c3b7-3dff-4010-ba6f-18a760faa11c)"><path d="M25.9 0L5.5 0Q4.95 0 4.65-0.33 4.35-0.65 4.35-1.15L4.35-1.15 4.35-33.85Q4.35-34.35 4.65-34.68 4.95-35 5.5-35L5.5-35 8.15-35Q8.65-35 8.97-34.68 9.3-34.35 9.3-33.85L9.3-33.85 9.3-4.35 25.9-4.35Q26.45-4.35 26.78-4.03 27.1-3.7 27.1-3.15L27.1-3.15 27.1-1.15Q27.1-0.65 26.78-0.33 26.45 0 25.9 0L25.9 0ZM39.1 0.5L39.1 0.5Q36.6 0.5 34.55-0.5 32.5-1.5 31.25-3.2 30-4.9 30-7.05L30-7.05Q30-10.5 32.8-12.55 35.6-14.6 40.1-15.25L40.1-15.25 47.55-16.3 47.55-17.75Q47.55-20.15 46.17-21.5 44.8-22.85 41.7-22.85L41.7-22.85Q39.5-22.85 38.1-21.95 36.7-21.05 36.15-19.65L36.15-19.65Q35.85-18.9 35.1-18.9L35.1-18.9 32.85-18.9Q32.3-18.9 32.02-19.23 31.75-19.55 31.75-20L31.75-20Q31.75-20.75 32.32-21.85 32.9-22.95 34.1-24 35.3-25.05 37.17-25.78 39.05-26.5 41.75-26.5L41.75-26.5Q44.75-26.5 46.8-25.73 48.85-24.95 50.02-23.65 51.2-22.35 51.72-20.7 52.25-19.05 52.25-17.35L52.25-17.35 52.25-1.15Q52.25-0.65 51.92-0.33 51.6 0 51.1 0L51.1 0 48.8 0Q48.25 0 47.95-0.33 47.65-0.65 47.65-1.15L47.65-1.15 47.65-3.3Q47-2.4 45.9-1.53 44.8-0.65 43.15-0.08 41.5 0.5 39.1 0.5ZM40.15-3.25L40.15-3.25Q42.2-3.25 43.9-4.13 45.6-5 46.57-6.85 47.55-8.7 47.55-11.5L47.55-11.5 47.55-12.9 41.75-12.05Q38.2-11.55 36.4-10.38 34.6-9.2 34.6-7.4L34.6-7.4Q34.6-6 35.42-5.08 36.25-4.15 37.52-3.7 38.8-3.25 40.15-3.25ZM68.45 0.5L68.45 0.5Q65.65 0.5 63.65-0.2 61.65-0.9 60.4-1.9 59.15-2.9 58.52-3.9 57.9-4.9 57.85-5.5L57.85-5.5Q57.8-6.05 58.2-6.35 58.6-6.65 59-6.65L59-6.65 61.25-6.65Q61.5-6.65 61.67-6.58 61.85-6.5 62.15-6.15L62.15-6.15Q62.8-5.45 63.6-4.75 64.4-4.05 65.57-3.6 66.75-3.15 68.5-3.15L68.5-3.15Q71.05-3.15 72.7-4.13 74.34-5.1 74.34-7L74.34-7Q74.34-8.25 73.67-9 73-9.75 71.27-10.35 69.55-10.95 66.55-11.6L66.55-11.6Q63.55-12.3 61.8-13.33 60.05-14.35 59.3-15.78 58.55-17.2 58.55-19L58.55-19Q58.55-20.85 59.65-22.58 60.75-24.3 62.87-25.4 65-26.5 68.2-26.5L68.2-26.5Q70.8-26.5 72.65-25.85 74.5-25.2 75.7-24.23 76.9-23.25 77.5-22.3 78.09-21.35 78.15-20.7L78.15-20.7Q78.2-20.2 77.84-19.88 77.5-19.55 77.05-19.55L77.05-19.55 74.95-19.55Q74.59-19.55 74.37-19.7 74.15-19.85 73.95-20.05L73.95-20.05Q73.45-20.7 72.77-21.35 72.09-22 71.02-22.43 69.95-22.85 68.2-22.85L68.2-22.85Q65.7-22.85 64.45-21.8 63.2-20.75 63.2-19.15L63.2-19.15Q63.2-18.2 63.75-17.45 64.3-16.7 65.84-16.1 67.4-15.5 70.45-14.8L70.45-14.8Q73.75-14.15 75.65-13.05 77.55-11.95 78.34-10.5 79.15-9.05 79.15-7.15L79.15-7.15Q79.15-5.05 77.95-3.3 76.75-1.55 74.34-0.53 71.95 0.5 68.45 0.5ZM100.74 0L98.34 0Q97.84 0 97.52-0.33 97.19-0.65 97.19-1.15L97.19-1.15 97.19-24.85Q97.19-25.35 97.52-25.68 97.84-26 98.34-26L98.34-26 100.59-26Q101.09-26 101.42-25.68 101.74-25.35 101.74-24.85L101.74-24.85 101.74-23.1Q102.89-24.65 104.64-25.58 106.39-26.5 108.84-26.5L108.84-26.5Q114.49-26.55 116.84-21.9L116.84-21.9Q117.99-24 120.19-25.25 122.39-26.5 125.19-26.5L125.19-26.5Q127.79-26.5 129.92-25.3 132.04-24.1 133.27-21.68 134.49-19.25 134.49-15.6L134.49-15.6 134.49-1.15Q134.49-0.65 134.17-0.33 133.84 0 133.34 0L133.34 0 130.99 0Q130.49 0 130.17-0.33 129.84-0.65 129.84-1.15L129.84-1.15 129.84-15.15Q129.84-17.95 129.04-19.55 128.24-21.15 126.89-21.8 125.54-22.45 123.94-22.45L123.94-22.45Q122.64-22.45 121.29-21.8 119.94-21.15 119.07-19.55 118.19-17.95 118.19-15.15L118.19-15.15 118.19-1.15Q118.19-0.65 117.87-0.33 117.54 0 117.04 0L117.04 0 114.69 0Q114.19 0 113.87-0.33 113.54-0.65 113.54-1.15L113.54-1.15 113.54-15.15Q113.54-17.95 112.69-19.55 111.84-21.15 110.49-21.8 109.14-22.45 107.64-22.45L107.64-22.45Q106.34-22.45 104.99-21.8 103.64-21.15 102.77-19.55 101.89-17.95 101.89-15.2L101.89-15.2 101.89-1.15Q101.89-0.65 101.57-0.33 101.24 0 100.74 0L100.74 0ZM152.04 0.5L152.04 0.5Q146.84 0.5 143.79-2.68 140.74-5.85 140.44-11.35L140.44-11.35Q140.39-12 140.39-13.03 140.39-14.05 140.44-14.7L140.44-14.7Q140.64-18.25 142.09-20.93 143.54-23.6 146.06-25.05 148.59-26.5 151.99-26.5L151.99-26.5Q155.79-26.5 158.36-24.9 160.94-23.3 162.29-20.35 163.64-17.4 163.64-13.45L163.64-13.45 163.64-12.6Q163.64-12.05 163.31-11.75 162.99-11.45 162.49-11.45L162.49-11.45 145.19-11.45Q145.19-11.4 145.19-11.25 145.19-11.1 145.19-11L145.19-11Q145.29-8.95 146.09-7.18 146.89-5.4 148.41-4.3 149.94-3.2 151.99-3.2L151.99-3.2Q153.79-3.2 154.99-3.75 156.19-4.3 156.94-4.98 157.69-5.65 157.94-6.05L157.94-6.05Q158.39-6.65 158.64-6.78 158.89-6.9 159.44-6.9L159.44-6.9 161.89-6.9Q162.34-6.9 162.66-6.63 162.99-6.35 162.94-5.85L162.94-5.85Q162.89-5.1 162.14-4.03 161.39-2.95 160.01-1.9 158.64-0.85 156.61-0.18 154.59 0.5 152.04 0.5ZM145.19-15.05L145.19-14.9 158.89-14.9 158.89-15.05Q158.89-17.3 158.06-19.05 157.24-20.8 155.69-21.83 154.14-22.85 151.99-22.85L151.99-22.85Q149.84-22.85 148.31-21.83 146.79-20.8 145.99-19.05 145.19-17.3 145.19-15.05L145.19-15.05ZM166.34 9.5L165.38 9.5Q164.88 9.5 164.56 9.18 164.24 8.85 164.24 8.35L164.24 8.35 164.24 6.65Q164.24 6.15 164.56 5.83 164.88 5.5 165.38 5.5L165.38 5.5 166.09 5.5Q167.88 5.5 168.74 4.83 169.59 4.15 169.86 3.03 170.13 1.9 170.13 0.55L170.13 0.55 170.13-24.85Q170.13-25.35 170.46-25.68 170.78-26 171.28-26L171.28-26 173.74-26Q174.24-26 174.56-25.68 174.88-25.35 174.88-24.85L174.88-24.85 174.88 0.6Q174.88 3.25 174.06 5.25 173.24 7.25 171.38 8.38 169.53 9.5 166.34 9.5L166.34 9.5ZM174.09-30.85L170.88-30.85Q170.38-30.85 170.06-31.18 169.74-31.5 169.74-32L169.74-32 169.74-34.7Q169.74-35.2 170.06-35.55 170.38-35.9 170.88-35.9L170.88-35.9 174.09-35.9Q174.59-35.9 174.94-35.55 175.28-35.2 175.28-34.7L175.28-34.7 175.28-32Q175.28-31.5 174.94-31.18 174.59-30.85 174.09-30.85L174.09-30.85ZM192.98 0.5L192.98 0.5Q189.18 0.5 186.63-0.95 184.08-2.4 182.73-4.98 181.38-7.55 181.23-10.85L181.23-10.85Q181.18-11.7 181.18-13.03 181.18-14.35 181.23-15.15L181.23-15.15Q181.38-18.5 182.76-21.05 184.13-23.6 186.68-25.05 189.23-26.5 192.98-26.5L192.98-26.5Q196.73-26.5 199.28-25.05 201.83-23.6 203.21-21.05 204.58-18.5 204.73-15.15L204.73-15.15Q204.78-14.35 204.78-13.03 204.78-11.7 204.73-10.85L204.73-10.85Q204.58-7.55 203.23-4.98 201.88-2.4 199.33-0.95 196.78 0.5 192.98 0.5ZM192.98-3.35L192.98-3.35Q196.08-3.35 197.93-5.33 199.78-7.3 199.93-11.1L199.93-11.1Q199.98-11.85 199.98-13 199.98-14.15 199.93-14.9L199.93-14.9Q199.78-18.7 197.93-20.68 196.08-22.65 192.98-22.65L192.98-22.65Q189.88-22.65 188.01-20.68 186.13-18.7 186.03-14.9L186.03-14.9Q185.98-14.15 185.98-13 185.98-11.85 186.03-11.1L186.03-11.1Q186.13-7.3 188.01-5.33 189.88-3.35 192.98-3.35ZM214.63 0L212.18 0Q211.68 0 211.35-0.33 211.03-0.65 211.03-1.15L211.03-1.15 211.03-24.8Q211.03-25.3 211.35-25.65 211.68-26 212.18-26L212.18-26 214.48-26Q214.98-26 215.33-25.65 215.68-25.3 215.68-24.8L215.68-24.8 215.68-22.6Q216.68-24.3 218.43-25.15 220.18-26 222.68-26L222.68-26 224.63-26Q225.13-26 225.45-25.68 225.78-25.35 225.78-24.85L225.78-24.85 225.78-22.8Q225.78-22.3 225.45-22 225.13-21.7 224.63-21.7L224.63-21.7 221.63-21.7Q218.93-21.7 217.38-20.13 215.83-18.55 215.83-15.85L215.83-15.85 215.83-1.15Q215.83-0.65 215.48-0.33 215.13 0 214.63 0L214.63 0ZM240.43 0.5L240.43 0.5Q235.23 0.5 232.18-2.68 229.13-5.85 228.83-11.35L228.83-11.35Q228.78-12 228.78-13.03 228.78-14.05 228.83-14.7L228.83-14.7Q229.03-18.25 230.48-20.93 231.93-23.6 234.45-25.05 236.98-26.5 240.38-26.5L240.38-26.5Q244.18-26.5 246.75-24.9 249.33-23.3 250.68-20.35 252.03-17.4 252.03-13.45L252.03-13.45 252.03-12.6Q252.03-12.05 251.7-11.75 251.38-11.45 250.88-11.45L250.88-11.45 233.58-11.45Q233.58-11.4 233.58-11.25 233.58-11.1 233.58-11L233.58-11Q233.68-8.95 234.48-7.18 235.28-5.4 236.8-4.3 238.33-3.2 240.38-3.2L240.38-3.2Q242.18-3.2 243.38-3.75 244.58-4.3 245.33-4.98 246.08-5.65 246.33-6.05L246.33-6.05Q246.78-6.65 247.03-6.78 247.28-6.9 247.83-6.9L247.83-6.9 250.28-6.9Q250.73-6.9 251.05-6.63 251.38-6.35 251.33-5.85L251.33-5.85Q251.28-5.1 250.53-4.03 249.78-2.95 248.4-1.9 247.03-0.85 245-0.18 242.98 0.5 240.43 0.5ZM233.58-15.05L233.58-14.9 247.28-14.9 247.28-15.05Q247.28-17.3 246.45-19.05 245.63-20.8 244.08-21.83 242.53-22.85 240.38-22.85L240.38-22.85Q238.23-22.85 236.7-21.83 235.18-20.8 234.38-19.05 233.58-17.3 233.58-15.05L233.58-15.05ZM267.02 0.5L267.02 0.5Q264.22 0.5 262.22-0.2 260.22-0.9 258.97-1.9 257.72-2.9 257.1-3.9 256.47-4.9 256.43-5.5L256.43-5.5Q256.38-6.05 256.77-6.35 257.18-6.65 257.57-6.65L257.57-6.65 259.82-6.65Q260.07-6.65 260.25-6.58 260.43-6.5 260.72-6.15L260.72-6.15Q261.38-5.45 262.18-4.75 262.97-4.05 264.15-3.6 265.32-3.15 267.07-3.15L267.07-3.15Q269.63-3.15 271.27-4.13 272.93-5.1 272.93-7L272.93-7Q272.93-8.25 272.25-9 271.57-9.75 269.85-10.35 268.13-10.95 265.13-11.6L265.13-11.6Q262.13-12.3 260.38-13.33 258.63-14.35 257.88-15.78 257.13-17.2 257.13-19L257.13-19Q257.13-20.85 258.22-22.58 259.32-24.3 261.45-25.4 263.57-26.5 266.77-26.5L266.77-26.5Q269.38-26.5 271.22-25.85 273.07-25.2 274.27-24.23 275.47-23.25 276.07-22.3 276.68-21.35 276.72-20.7L276.72-20.7Q276.77-20.2 276.43-19.88 276.07-19.55 275.63-19.55L275.63-19.55 273.52-19.55Q273.18-19.55 272.95-19.7 272.72-19.85 272.52-20.05L272.52-20.05Q272.02-20.7 271.35-21.35 270.68-22 269.6-22.43 268.52-22.85 266.77-22.85L266.77-22.85Q264.27-22.85 263.02-21.8 261.77-20.75 261.77-19.15L261.77-19.15Q261.77-18.2 262.32-17.45 262.88-16.7 264.43-16.1 265.97-15.5 269.02-14.8L269.02-14.8Q272.32-14.15 274.22-13.05 276.13-11.95 276.93-10.5 277.72-9.05 277.72-7.15L277.72-7.15Q277.72-5.05 276.52-3.3 275.32-1.55 272.93-0.53 270.52 0.5 267.02 0.5ZM299.32 0L296.92 0Q296.42 0 296.09-0.33 295.77-0.65 295.77-1.15L295.77-1.15 295.77-24.85Q295.77-25.35 296.09-25.68 296.42-26 296.92-26L296.92-26 299.32-26Q299.82-26 300.14-25.68 300.47-25.35 300.47-24.85L300.47-24.85 300.47-1.15Q300.47-0.65 300.14-0.33 299.82 0 299.32 0L299.32 0ZM299.67-30.85L296.52-30.85Q296.02-30.85 295.69-31.18 295.37-31.5 295.37-32L295.37-32 295.37-34.7Q295.37-35.2 295.69-35.55 296.02-35.9 296.52-35.9L296.52-35.9 299.67-35.9Q300.17-35.9 300.52-35.55 300.87-35.2 300.87-34.7L300.87-34.7 300.87-32Q300.87-31.5 300.52-31.18 300.17-30.85 299.67-30.85L299.67-30.85ZM317.37 0.5L317.37 0.5Q314.62 0.5 312.62-0.48 310.62-1.45 309.34-3.13 308.07-4.8 307.44-6.95 306.82-9.1 306.72-11.5L306.72-11.5Q306.67-12.3 306.67-13 306.67-13.7 306.72-14.5L306.72-14.5Q306.82-16.85 307.44-19 308.07-21.15 309.34-22.85 310.62-24.55 312.62-25.53 314.62-26.5 317.37-26.5L317.37-26.5Q320.32-26.5 322.27-25.45 324.22-24.4 325.47-22.85L325.47-22.85 325.47-34.35Q325.47-34.85 325.79-35.18 326.12-35.5 326.62-35.5L326.62-35.5 329.02-35.5Q329.52-35.5 329.84-35.18 330.17-34.85 330.17-34.35L330.17-34.35 330.17-1.15Q330.17-0.65 329.84-0.33 329.52 0 329.02 0L329.02 0 326.77 0Q326.22 0 325.92-0.33 325.62-0.65 325.62-1.15L325.62-1.15 325.62-3.25Q324.37-1.65 322.37-0.58 320.37 0.5 317.37 0.5ZM318.42-3.55L318.42-3.55Q320.92-3.55 322.42-4.7 323.92-5.85 324.67-7.63 325.42-9.4 325.47-11.25L325.47-11.25Q325.52-12.05 325.52-13.18 325.52-14.3 325.47-15.1L325.47-15.1Q325.42-16.85 324.64-18.55 323.87-20.25 322.34-21.35 320.82-22.45 318.42-22.45L318.42-22.45Q315.87-22.45 314.37-21.33 312.87-20.2 312.22-18.38 311.57-16.55 311.47-14.45L311.47-14.45Q311.42-13 311.47-11.55L311.47-11.55Q311.57-9.45 312.22-7.63 312.87-5.8 314.37-4.67 315.87-3.55 318.42-3.55ZM348.02 0.5L348.02 0.5Q342.81 0.5 339.77-2.68 336.72-5.85 336.42-11.35L336.42-11.35Q336.37-12 336.37-13.03 336.37-14.05 336.42-14.7L336.42-14.7Q336.62-18.25 338.06-20.93 339.52-23.6 342.04-25.05 344.56-26.5 347.97-26.5L347.97-26.5Q351.77-26.5 354.34-24.9 356.92-23.3 358.27-20.35 359.62-17.4 359.62-13.45L359.62-13.45 359.62-12.6Q359.62-12.05 359.29-11.75 358.97-11.45 358.47-11.45L358.47-11.45 341.17-11.45Q341.17-11.4 341.17-11.25 341.17-11.1 341.17-11L341.17-11Q341.27-8.95 342.06-7.18 342.87-5.4 344.39-4.3 345.92-3.2 347.97-3.2L347.97-3.2Q349.77-3.2 350.97-3.75 352.17-4.3 352.92-4.98 353.67-5.65 353.92-6.05L353.92-6.05Q354.37-6.65 354.62-6.78 354.87-6.9 355.42-6.9L355.42-6.9 357.87-6.9Q358.31-6.9 358.64-6.63 358.97-6.35 358.92-5.85L358.92-5.85Q358.87-5.1 358.12-4.03 357.37-2.95 355.99-1.9 354.62-0.85 352.59-0.18 350.56 0.5 348.02 0.5ZM341.17-15.05L341.17-14.9 354.87-14.9 354.87-15.05Q354.87-17.3 354.04-19.05 353.22-20.8 351.67-21.83 350.12-22.85 347.97-22.85L347.97-22.85Q345.81-22.85 344.29-21.83 342.77-20.8 341.97-19.05 341.17-17.3 341.17-15.05L341.17-15.05ZM372.86 0.5L372.86 0.5Q370.36 0.5 368.31-0.5 366.26-1.5 365.01-3.2 363.76-4.9 363.76-7.05L363.76-7.05Q363.76-10.5 366.56-12.55 369.36-14.6 373.86-15.25L373.86-15.25 381.31-16.3 381.31-17.75Q381.31-20.15 379.94-21.5 378.56-22.85 375.46-22.85L375.46-22.85Q373.26-22.85 371.86-21.95 370.46-21.05 369.91-19.65L369.91-19.65Q369.61-18.9 368.86-18.9L368.86-18.9 366.61-18.9Q366.06-18.9 365.79-19.23 365.51-19.55 365.51-20L365.51-20Q365.51-20.75 366.09-21.85 366.66-22.95 367.86-24 369.06-25.05 370.94-25.78 372.81-26.5 375.51-26.5L375.51-26.5Q378.51-26.5 380.56-25.73 382.61-24.95 383.79-23.65 384.96-22.35 385.49-20.7 386.01-19.05 386.01-17.35L386.01-17.35 386.01-1.15Q386.01-0.65 385.69-0.33 385.36 0 384.86 0L384.86 0 382.56 0Q382.01 0 381.71-0.33 381.41-0.65 381.41-1.15L381.41-1.15 381.41-3.3Q380.76-2.4 379.66-1.53 378.56-0.65 376.91-0.08 375.26 0.5 372.86 0.5ZM373.91-3.25L373.91-3.25Q375.96-3.25 377.66-4.13 379.36-5 380.34-6.85 381.31-8.7 381.31-11.5L381.31-11.5 381.31-12.9 375.51-12.05Q371.96-11.55 370.16-10.38 368.36-9.2 368.36-7.4L368.36-7.4Q368.36-6 369.19-5.08 370.01-4.15 371.29-3.7 372.56-3.25 373.91-3.25ZM402.21 0.5L402.21 0.5Q399.41 0.5 397.41-0.2 395.41-0.9 394.16-1.9 392.91-2.9 392.29-3.9 391.66-4.9 391.61-5.5L391.61-5.5Q391.56-6.05 391.96-6.35 392.36-6.65 392.76-6.65L392.76-6.65 395.01-6.65Q395.26-6.65 395.44-6.58 395.61-6.5 395.91-6.15L395.91-6.15Q396.56-5.45 397.36-4.75 398.16-4.05 399.34-3.6 400.51-3.15 402.26-3.15L402.26-3.15Q404.81-3.15 406.46-4.13 408.11-5.1 408.11-7L408.11-7Q408.11-8.25 407.44-9 406.76-9.75 405.04-10.35 403.31-10.95 400.31-11.6L400.31-11.6Q397.31-12.3 395.56-13.33 393.81-14.35 393.06-15.78 392.31-17.2 392.31-19L392.31-19Q392.31-20.85 393.41-22.58 394.51-24.3 396.64-25.4 398.76-26.5 401.96-26.5L401.96-26.5Q404.56-26.5 406.41-25.85 408.26-25.2 409.46-24.23 410.66-23.25 411.26-22.3 411.86-21.35 411.91-20.7L411.91-20.7Q411.96-20.2 411.61-19.88 411.26-19.55 410.81-19.55L410.81-19.55 408.71-19.55Q408.36-19.55 408.14-19.7 407.91-19.85 407.71-20.05L407.71-20.05Q407.21-20.7 406.54-21.35 405.86-22 404.79-22.43 403.71-22.85 401.96-22.85L401.96-22.85Q399.46-22.85 398.21-21.8 396.96-20.75 396.96-19.15L396.96-19.15Q396.96-18.2 397.51-17.45 398.06-16.7 399.61-16.1 401.16-15.5 404.21-14.8L404.21-14.8Q407.51-14.15 409.41-13.05 411.31-11.95 412.11-10.5 412.91-9.05 412.91-7.15L412.91-7.15Q412.91-5.05 411.71-3.3 410.51-1.55 408.11-0.53 405.71 0.5 402.21 0.5ZM434.61 9.5L432.16 9.5Q431.66 9.5 431.33 9.18 431.01 8.85 431.01 8.35L431.01 8.35 431.01-24.85Q431.01-25.35 431.33-25.68 431.66-26 432.16-26L432.16-26 434.46-26Q434.96-26 435.28-25.68 435.61-25.35 435.61-24.85L435.61-24.85 435.61-22.65Q436.81-24.3 438.81-25.4 440.81-26.5 443.81-26.5L443.81-26.5Q446.61-26.5 448.58-25.55 450.56-24.6 451.83-22.95 453.11-21.3 453.76-19.2 454.41-17.1 454.51-14.7L454.51-14.7Q454.56-13.9 454.56-13 454.56-12.1 454.51-11.3L454.51-11.3Q454.41-8.95 453.76-6.83 453.11-4.7 451.83-3.08 450.56-1.45 448.58-0.48 446.61 0.5 443.81 0.5L443.81 0.5Q440.91 0.5 438.93-0.58 436.96-1.65 435.71-3.25L435.71-3.25 435.71 8.35Q435.71 8.85 435.41 9.18 435.11 9.5 434.61 9.5L434.61 9.5ZM442.76-3.55L442.76-3.55Q445.36-3.55 446.83-4.67 448.31-5.8 448.96-7.63 449.61-9.45 449.71-11.55L449.71-11.55Q449.76-13 449.71-14.45L449.71-14.45Q449.61-16.55 448.96-18.38 448.31-20.2 446.83-21.33 445.36-22.45 442.76-22.45L442.76-22.45Q440.31-22.45 438.78-21.3 437.26-20.15 436.53-18.38 435.81-16.6 435.71-14.75L435.71-14.75Q435.66-13.95 435.66-12.85 435.66-11.75 435.71-10.9L435.71-10.9Q435.76-9.15 436.53-7.45 437.31-5.75 438.86-4.65 440.41-3.55 442.76-3.55ZM468 0.5L468 0.5Q465.5 0.5 463.45-0.5 461.4-1.5 460.15-3.2 458.9-4.9 458.9-7.05L458.9-7.05Q458.9-10.5 461.7-12.55 464.5-14.6 469-15.25L469-15.25 476.45-16.3 476.45-17.75Q476.45-20.15 475.08-21.5 473.7-22.85 470.6-22.85L470.6-22.85Q468.4-22.85 467-21.95 465.6-21.05 465.05-19.65L465.05-19.65Q464.75-18.9 464-18.9L464-18.9 461.75-18.9Q461.2-18.9 460.93-19.23 460.65-19.55 460.65-20L460.65-20Q460.65-20.75 461.23-21.85 461.8-22.95 463-24 464.2-25.05 466.08-25.78 467.95-26.5 470.65-26.5L470.65-26.5Q473.65-26.5 475.7-25.73 477.75-24.95 478.93-23.65 480.1-22.35 480.63-20.7 481.15-19.05 481.15-17.35L481.15-17.35 481.15-1.15Q481.15-0.65 480.83-0.33 480.5 0 480 0L480 0 477.7 0Q477.15 0 476.85-0.33 476.55-0.65 476.55-1.15L476.55-1.15 476.55-3.3Q475.9-2.4 474.8-1.53 473.7-0.65 472.05-0.08 470.4 0.5 468 0.5ZM469.05-3.25L469.05-3.25Q471.1-3.25 472.8-4.13 474.5-5 475.48-6.85 476.45-8.7 476.45-11.5L476.45-11.5 476.45-12.9 470.65-12.05Q467.1-11.55 465.3-10.38 463.5-9.2 463.5-7.4L463.5-7.4Q463.5-6 464.33-5.08 465.15-4.15 466.43-3.7 467.7-3.25 469.05-3.25ZM491.95 0L489.5 0Q489 0 488.68-0.33 488.35-0.65 488.35-1.15L488.35-1.15 488.35-24.8Q488.35-25.3 488.68-25.65 489-26 489.5-26L489.5-26 491.8-26Q492.3-26 492.65-25.65 493-25.3 493-24.8L493-24.8 493-22.6Q494-24.3 495.75-25.15 497.5-26 500-26L500-26 501.95-26Q502.45-26 502.78-25.68 503.1-25.35 503.1-24.85L503.1-24.85 503.1-22.8Q503.1-22.3 502.78-22 502.45-21.7 501.95-21.7L501.95-21.7 498.95-21.7Q496.25-21.7 494.7-20.13 493.15-18.55 493.15-15.85L493.15-15.85 493.15-1.15Q493.15-0.65 492.8-0.33 492.45 0 491.95 0L491.95 0ZM514.6 0.5L514.6 0.5Q512.1 0.5 510.05-0.5 508-1.5 506.75-3.2 505.5-4.9 505.5-7.05L505.5-7.05Q505.5-10.5 508.3-12.55 511.1-14.6 515.6-15.25L515.6-15.25 523.05-16.3 523.05-17.75Q523.05-20.15 521.67-21.5 520.3-22.85 517.2-22.85L517.2-22.85Q515-22.85 513.6-21.95 512.2-21.05 511.65-19.65L511.65-19.65Q511.35-18.9 510.6-18.9L510.6-18.9 508.35-18.9Q507.8-18.9 507.52-19.23 507.25-19.55 507.25-20L507.25-20Q507.25-20.75 507.82-21.85 508.4-22.95 509.6-24 510.8-25.05 512.67-25.78 514.55-26.5 517.25-26.5L517.25-26.5Q520.25-26.5 522.3-25.73 524.35-24.95 525.52-23.65 526.7-22.35 527.22-20.7 527.75-19.05 527.75-17.35L527.75-17.35 527.75-1.15Q527.75-0.65 527.42-0.33 527.1 0 526.6 0L526.6 0 524.3 0Q523.75 0 523.45-0.33 523.15-0.65 523.15-1.15L523.15-1.15 523.15-3.3Q522.5-2.4 521.4-1.53 520.3-0.65 518.65-0.08 517 0.5 514.6 0.5ZM515.65-3.25L515.65-3.25Q517.7-3.25 519.4-4.13 521.1-5 522.07-6.85 523.05-8.7 523.05-11.5L523.05-11.5 523.05-12.9 517.25-12.05Q513.7-11.55 511.9-10.38 510.1-9.2 510.1-7.4L510.1-7.4Q510.1-6 510.92-5.08 511.75-4.15 513.02-3.7 514.3-3.25 515.65-3.25ZM560.79 0L557.34 0Q554.54 0 552.79-1.07 551.04-2.15 550.24-4.13 549.44-6.1 549.44-8.8L549.44-8.8 549.44-22 545.54-22Q545.04-22 544.72-22.33 544.39-22.65 544.39-23.15L544.39-23.15 544.39-24.85Q544.39-25.35 544.72-25.68 545.04-26 545.54-26L545.54-26 549.44-26 549.44-34.35Q549.44-34.85 549.77-35.18 550.09-35.5 550.59-35.5L550.59-35.5 552.94-35.5Q553.44-35.5 553.77-35.18 554.09-34.85 554.09-34.35L554.09-34.35 554.09-26 560.29-26Q560.84-26 561.14-25.68 561.44-25.35 561.44-24.85L561.44-24.85 561.44-23.15Q561.44-22.65 561.14-22.33 560.84-22 560.29-22L560.29-22 554.09-22 554.09-9.15Q554.09-6.8 554.89-5.45 555.69-4.1 557.74-4.1L557.74-4.1 560.79-4.1Q561.29-4.1 561.62-3.78 561.94-3.45 561.94-2.95L561.94-2.95 561.94-1.15Q561.94-0.65 561.62-0.33 561.29 0 560.79 0L560.79 0ZM576.44 0.5L576.44 0.5Q573.24 0.5 571.01-0.93 568.79-2.35 567.64-4.9 566.49-7.45 566.49-10.75L566.49-10.75 566.49-24.85Q566.49-25.35 566.81-25.68 567.14-26 567.64-26L567.64-26 570.14-26Q570.64-26 570.96-25.68 571.29-25.35 571.29-24.85L571.29-24.85 571.29-11Q571.29-3.55 577.79-3.55L577.79-3.55Q580.89-3.55 582.76-5.53 584.64-7.5 584.64-11L584.64-11 584.64-24.85Q584.64-25.35 584.96-25.68 585.29-26 585.79-26L585.79-26 588.29-26Q588.79-26 589.09-25.68 589.39-25.35 589.39-24.85L589.39-24.85 589.39-1.15Q589.39-0.65 589.09-0.33 588.79 0 588.29 0L588.29 0 585.94 0Q585.44 0 585.11-0.33 584.79-0.65 584.79-1.15L584.79-1.15 584.79-3.35Q583.44-1.6 581.51-0.55 579.59 0.5 576.44 0.5ZM605.84 0.5L605.84 0.5Q603.04 0.5 601.04-0.2 599.04-0.9 597.79-1.9 596.54-2.9 595.91-3.9 595.29-4.9 595.24-5.5L595.24-5.5Q595.19-6.05 595.59-6.35 595.99-6.65 596.39-6.65L596.39-6.65 598.64-6.65Q598.89-6.65 599.06-6.58 599.24-6.5 599.54-6.15L599.54-6.15Q600.19-5.45 600.99-4.75 601.79-4.05 602.96-3.6 604.14-3.15 605.89-3.15L605.89-3.15Q608.44-3.15 610.09-4.13 611.74-5.1 611.74-7L611.74-7Q611.74-8.25 611.06-9 610.39-9.75 608.66-10.35 606.94-10.95 603.94-11.6L603.94-11.6Q600.94-12.3 599.19-13.33 597.44-14.35 596.69-15.78 595.94-17.2 595.94-19L595.94-19Q595.94-20.85 597.04-22.58 598.14-24.3 600.26-25.4 602.39-26.5 605.59-26.5L605.59-26.5Q608.19-26.5 610.04-25.85 611.89-25.2 613.09-24.23 614.29-23.25 614.89-22.3 615.49-21.35 615.54-20.7L615.54-20.7Q615.59-20.2 615.24-19.88 614.89-19.55 614.44-19.55L614.44-19.55 612.34-19.55Q611.99-19.55 611.76-19.7 611.54-19.85 611.34-20.05L611.34-20.05Q610.84-20.7 610.16-21.35 609.49-22 608.41-22.43 607.34-22.85 605.59-22.85L605.59-22.85Q603.09-22.85 601.84-21.8 600.59-20.75 600.59-19.15L600.59-19.15Q600.59-18.2 601.14-17.45 601.69-16.7 603.24-16.1 604.79-15.5 607.84-14.8L607.84-14.8Q611.14-14.15 613.04-13.05 614.94-11.95 615.74-10.5 616.54-9.05 616.54-7.15L616.54-7.15Q616.54-5.05 615.34-3.3 614.14-1.55 611.74-0.53 609.34 0.5 605.84 0.5ZM644.98 0.5L644.98 0.5Q639.78 0.5 636.73-2.68 633.68-5.85 633.38-11.35L633.38-11.35Q633.33-12 633.33-13.03 633.33-14.05 633.38-14.7L633.38-14.7Q633.58-18.25 635.03-20.93 636.48-23.6 639.01-25.05 641.53-26.5 644.93-26.5L644.93-26.5Q648.73-26.5 651.31-24.9 653.88-23.3 655.23-20.35 656.58-17.4 656.58-13.45L656.58-13.45 656.58-12.6Q656.58-12.05 656.26-11.75 655.93-11.45 655.43-11.45L655.43-11.45 638.13-11.45Q638.13-11.4 638.13-11.25 638.13-11.1 638.13-11L638.13-11Q638.23-8.95 639.03-7.18 639.83-5.4 641.36-4.3 642.88-3.2 644.93-3.2L644.93-3.2Q646.73-3.2 647.93-3.75 649.13-4.3 649.88-4.98 650.63-5.65 650.88-6.05L650.88-6.05Q651.33-6.65 651.58-6.78 651.83-6.9 652.38-6.9L652.38-6.9 654.83-6.9Q655.28-6.9 655.61-6.63 655.93-6.35 655.88-5.85L655.88-5.85Q655.83-5.1 655.08-4.03 654.33-2.95 652.96-1.9 651.58-0.85 649.56-0.18 647.53 0.5 644.98 0.5ZM638.13-15.05L638.13-14.9 651.83-14.9 651.83-15.05Q651.83-17.3 651.01-19.05 650.18-20.8 648.63-21.83 647.08-22.85 644.93-22.85L644.93-22.85Q642.78-22.85 641.26-21.83 639.73-20.8 638.93-19.05 638.13-17.3 638.13-15.05L638.13-15.05ZM673.78 0L671.63 0Q670.88 0 670.45-0.35 670.03-0.7 669.78-1.25L669.78-1.25 660.53-24.45Q660.43-24.7 660.43-24.95L660.43-24.95Q660.43-25.4 660.73-25.7 661.03-26 661.48-26L661.48-26 663.88-26Q664.43-26 664.73-25.7 665.03-25.4 665.13-25.15L665.13-25.15 672.73-5.45 680.33-25.15Q680.43-25.4 680.7-25.7 680.98-26 681.53-26L681.53-26 683.98-26Q684.38-26 684.7-25.7 685.03-25.4 685.03-24.95L685.03-24.95Q685.03-24.7 684.93-24.45L684.93-24.45 675.63-1.25Q675.43-0.7 675-0.35 674.58 0 673.78 0L673.78 0ZM700.68 0.5L700.68 0.5Q695.48 0.5 692.43-2.68 689.38-5.85 689.08-11.35L689.08-11.35Q689.03-12 689.03-13.03 689.03-14.05 689.08-14.7L689.08-14.7Q689.28-18.25 690.73-20.93 692.18-23.6 694.7-25.05 697.23-26.5 700.63-26.5L700.63-26.5Q704.43-26.5 707-24.9 709.58-23.3 710.93-20.35 712.28-17.4 712.28-13.45L712.28-13.45 712.28-12.6Q712.28-12.05 711.95-11.75 711.63-11.45 711.13-11.45L711.13-11.45 693.83-11.45Q693.83-11.4 693.83-11.25 693.83-11.1 693.83-11L693.83-11Q693.93-8.95 694.73-7.18 695.53-5.4 697.05-4.3 698.58-3.2 700.63-3.2L700.63-3.2Q702.43-3.2 703.63-3.75 704.83-4.3 705.58-4.98 706.33-5.65 706.58-6.05L706.58-6.05Q707.03-6.65 707.28-6.78 707.53-6.9 708.08-6.9L708.08-6.9 710.53-6.9Q710.98-6.9 711.3-6.63 711.63-6.35 711.58-5.85L711.58-5.85Q711.53-5.1 710.78-4.03 710.03-2.95 708.65-1.9 707.28-0.85 705.25-0.18 703.23 0.5 700.68 0.5ZM693.83-15.05L693.83-14.9 707.53-14.9 707.53-15.05Q707.53-17.3 706.7-19.05 705.88-20.8 704.33-21.83 702.78-22.85 700.63-22.85L700.63-22.85Q698.48-22.85 696.95-21.83 695.43-20.8 694.63-19.05 693.83-17.3 693.83-15.05L693.83-15.05ZM721.92 0L719.42 0Q718.92 0 718.6-0.33 718.27-0.65 718.27-1.15L718.27-1.15 718.27-24.85Q718.27-25.35 718.6-25.68 718.92-26 719.42-26L719.42-26 721.77-26Q722.27-26 722.6-25.68 722.92-25.35 722.92-24.85L722.92-24.85 722.92-22.65Q724.22-24.35 726.2-25.43 728.17-26.5 731.27-26.5L731.27-26.5Q734.52-26.5 736.8-25.08 739.07-23.65 740.25-21.13 741.42-18.6 741.42-15.25L741.42-15.25 741.42-1.15Q741.42-0.65 741.1-0.33 740.77 0 740.27 0L740.27 0 737.77 0Q737.27 0 736.95-0.33 736.62-0.65 736.62-1.15L736.62-1.15 736.62-15Q736.62-18.5 734.92-20.48 733.22-22.45 729.92-22.45L729.92-22.45Q726.82-22.45 724.95-20.48 723.07-18.5 723.07-15L723.07-15 723.07-1.15Q723.07-0.65 722.75-0.33 722.42 0 721.92 0L721.92 0ZM762.17 0L758.72 0Q755.92 0 754.17-1.07 752.42-2.15 751.62-4.13 750.82-6.1 750.82-8.8L750.82-8.8 750.82-22 746.92-22Q746.42-22 746.1-22.33 745.77-22.65 745.77-23.15L745.77-23.15 745.77-24.85Q745.77-25.35 746.1-25.68 746.42-26 746.92-26L746.92-26 750.82-26 750.82-34.35Q750.82-34.85 751.15-35.18 751.47-35.5 751.97-35.5L751.97-35.5 754.32-35.5Q754.82-35.5 755.15-35.18 755.47-34.85 755.47-34.35L755.47-34.35 755.47-26 761.67-26Q762.22-26 762.52-25.68 762.82-25.35 762.82-24.85L762.82-24.85 762.82-23.15Q762.82-22.65 762.52-22.33 762.22-22 761.67-22L761.67-22 755.47-22 755.47-9.15Q755.47-6.8 756.27-5.45 757.07-4.1 759.12-4.1L759.12-4.1 762.17-4.1Q762.67-4.1 763-3.78 763.32-3.45 763.32-2.95L763.32-2.95 763.32-1.15Q763.32-0.65 763-0.33 762.67 0 762.17 0L762.17 0ZM778.77 0.5L778.77 0.5Q774.97 0.5 772.42-0.95 769.87-2.4 768.52-4.98 767.17-7.55 767.02-10.85L767.02-10.85Q766.97-11.7 766.97-13.03 766.97-14.35 767.02-15.15L767.02-15.15Q767.17-18.5 768.54-21.05 769.92-23.6 772.47-25.05 775.02-26.5 778.77-26.5L778.77-26.5Q782.52-26.5 785.07-25.05 787.62-23.6 788.99-21.05 790.37-18.5 790.52-15.15L790.52-15.15Q790.57-14.35 790.57-13.03 790.57-11.7 790.52-10.85L790.52-10.85Q790.37-7.55 789.02-4.98 787.67-2.4 785.12-0.95 782.57 0.5 778.77 0.5ZM778.77-3.35L778.77-3.35Q781.87-3.35 783.72-5.33 785.57-7.3 785.72-11.1L785.72-11.1Q785.77-11.85 785.77-13 785.77-14.15 785.72-14.9L785.72-14.9Q785.57-18.7 783.72-20.68 781.87-22.65 778.77-22.65L778.77-22.65Q775.67-22.65 773.79-20.68 771.92-18.7 771.82-14.9L771.82-14.9Q771.77-14.15 771.77-13 771.77-11.85 771.82-11.1L771.82-11.1Q771.92-7.3 773.79-5.33 775.67-3.35 778.77-3.35ZM805.82 0.5L805.82 0.5Q803.02 0.5 801.02-0.2 799.02-0.9 797.77-1.9 796.52-2.9 795.89-3.9 795.27-4.9 795.22-5.5L795.22-5.5Q795.17-6.05 795.57-6.35 795.97-6.65 796.37-6.65L796.37-6.65 798.62-6.65Q798.87-6.65 799.04-6.58 799.22-6.5 799.52-6.15L799.52-6.15Q800.17-5.45 800.97-4.75 801.77-4.05 802.94-3.6 804.12-3.15 805.87-3.15L805.87-3.15Q808.42-3.15 810.07-4.13 811.72-5.1 811.72-7L811.72-7Q811.72-8.25 811.04-9 810.37-9.75 808.64-10.35 806.92-10.95 803.92-11.6L803.92-11.6Q800.92-12.3 799.17-13.33 797.42-14.35 796.67-15.78 795.92-17.2 795.92-19L795.92-19Q795.92-20.85 797.02-22.58 798.12-24.3 800.24-25.4 802.37-26.5 805.57-26.5L805.57-26.5Q808.17-26.5 810.02-25.85 811.87-25.2 813.07-24.23 814.27-23.25 814.87-22.3 815.47-21.35 815.52-20.7L815.52-20.7Q815.57-20.2 815.22-19.88 814.87-19.55 814.42-19.55L814.42-19.55 812.32-19.55Q811.97-19.55 811.74-19.7 811.52-19.85 811.32-20.05L811.32-20.05Q810.82-20.7 810.14-21.35 809.47-22 808.39-22.43 807.32-22.85 805.57-22.85L805.57-22.85Q803.07-22.85 801.82-21.8 800.57-20.75 800.57-19.15L800.57-19.15Q800.57-18.2 801.12-17.45 801.67-16.7 803.22-16.1 804.77-15.5 807.82-14.8L807.82-14.8Q811.12-14.15 813.02-13.05 814.92-11.95 815.72-10.5 816.52-9.05 816.52-7.15L816.52-7.15Q816.52-5.05 815.32-3.3 814.12-1.55 811.72-0.53 809.32 0.5 805.82 0.5Z" opacity="1" transform="matrix(1,0,0,1,0,0)" fill="white" class="slogan-text-1" id="SvgjsPath1079"></path></svg></g></svg></g></svg></g></svg></g><g><svg viewBox="0 0 93.29366250868685 90.39412447329723" height="90.39412447329723" width="93.29366250868685"><g><svg version="1.1" xmlns:rdf="http://www.w3.org/1999/02/22-rdf-syntax-ns#" xmlns:cc="http://creativecommons.org/ns#" xmlns:sodipodi="http://sodipodi.sourceforge.net/DTD/sodipodi-0.dtd" xmlns:dc="http://purl.org/dc/elements/1.1/" xmlns:inkscape="http://www.inkscape.org/namespaces/inkscape" xmlns:svg="http://www.w3.org/2000/svg" xmlns="http://www.w3.org/2000/svg" xmlns:xlink="http://www.w3.org/1999/xlink" x="0" y="0" viewBox="0 1.554 100.00099999999999 96.893" enable-background="new 0 1.554 100 96.893" xml:space="preserve" width="93.29366250868685" height="90.39412447329723" class="icon-icon-0" data-fill-palette-color="accent" id="SvgjsSvg1078"><path d="M31.356 1.554H14.548C6.572 1.554 0 8.126 0 16.102v16.808c0 7.976 6.572 14.478 14.548 14.478h16.808c7.976 0 14.478-6.501 14.478-14.478V16.102C45.833 8.126 39.332 1.554 31.356 1.554zM37.429 32.909c0 3.437-2.636 6.074-6.073 6.074H14.548c-3.436 0-6.073-2.637-6.073-6.074V16.102c0-3.437 2.637-6.074 6.073-6.074h16.808c3.437 0 6.073 2.637 6.073 6.074V32.909z" fill="black"></path><path d="M77.119 47.387C89.711 47.387 100 37.098 100 24.505c0-12.592-10.289-22.881-22.881-22.881-12.593 0-22.882 10.29-22.882 22.881C54.237 37.098 64.526 47.387 77.119 47.387zM77.119 10.028c8.021 0 14.406 6.457 14.406 14.478 0 8.021-6.386 14.407-14.406 14.407-8.021 0-14.479-6.385-14.479-14.407C62.641 16.484 69.098 10.028 77.119 10.028z" fill="black"></path><path d="M85.522 52.613H68.715c-7.976 0-14.549 6.571-14.549 14.547v16.738c0 7.976 6.573 14.548 14.549 14.548h16.808c7.976 0 14.478-6.572 14.478-14.548V67.16C100 59.185 93.498 52.613 85.522 52.613zM91.596 83.898c0 3.437-2.637 6.145-6.073 6.145H68.715c-3.437 0-6.074-2.708-6.074-6.145V67.161c0-3.437 2.638-6.073 6.074-6.073h16.808c3.437 0 6.073 2.637 6.073 6.073V83.898z" fill="black"></path><path d="M22.952 52.684c-12.592 0-22.881 10.289-22.881 22.882 0 12.592 10.29 22.881 22.881 22.881s22.881-10.289 22.881-22.881C45.833 62.973 35.544 52.684 22.952 52.684zM22.952 89.973c-8.021 0-14.407-6.387-14.407-14.407 0-8.021 6.386-14.478 14.407-14.478s14.407 6.456 14.407 14.478C37.359 83.586 30.973 89.973 22.952 89.973z" fill="black"></path></svg></g></svg></g></svg></g><defs><mask></mask></defs></svg><rect width="395.52" height="71.67351544991297" fill="black" stroke="none" visibility="hidden"></rect></g></mask><linearGradient x1="0" x2="1" y1="0.578" y2="0.595" id="42c3c3b7-3dff-4010-ba6f-18a760faa11c"><stop stop-color="#6ee2f5" offset="0"></stop><stop stop-color="#6454f0" offset="1"></stop></linearGradient><rect width="395.52" height="71.67351544991297" fill="#ffffff" mask="url(#42eb32b1-f09e-47d4-8510-5cd87d8d86b3)" data-fill-palette-color="secondary"></rect><mask id="faec0572-43d7-414c-b021-0a4b01cef971"><g id="SvgjsG1094"><svg viewBox="0 0 395.52 71.67351544991297" height="71.67351544991297" width="395.52"><g><svg viewBox="0 0 498.8269919125605 90.39412447329723" height="71.67351544991297" width="395.52"><g transform="matrix(1,0,0,1,103.3069919125605,12.492965104486089)"><svg viewBox="0 0 395.52 65.40819426432505" height="65.40819426432505" width="395.52"><g id="SvgjsG1093"><svg viewBox="0 0 395.52 65.40819426432505" height="65.40819426432505" width="395.52" id="SvgjsSvg1092"><g><svg viewBox="0 0 395.52 42.41570258676719" height="42.41570258676719" width="395.52"><g transform="matrix(1,0,0,1,0,0)"><svg width="395.52" viewBox="5.35 -40.4 384.60999999999996 41.25" height="42.41570258676719" data-palette-color="#6ee2f5"><path d="M5.35 0L5.35-37.9 10.2-37.9 10.2 0 5.35 0ZM33.2-28.25Q38.3-28.25 40.77-25.55 43.25-22.85 43.25-16.65L43.25-16.65 43.25 0 38.55 0 38.55-16.65Q38.55-20.55 37.22-22.2 35.9-23.85 32.55-23.85L32.55-23.85Q28.65-23.85 24.75-20.45L24.75-20.45 24.75 0 20.05 0 20.05-27.65 24.75-27.65 24.75-24.7Q28.85-28.25 33.2-28.25L33.2-28.25ZM70-27.65L74.9-27.65 64.45 0.45 59.05 0.45 48.5-27.65 53.4-27.65 61.75-4.75 70-27.65ZM80.39-32.85L80.39-40.4 85.09-40.4 85.09-32.85 80.39-32.85ZM80.39 0L80.39-27.65 85.09-27.65 85.09 0 80.39 0ZM106.14-22.95L99.74-22.95 99.74-7.15Q99.74-5.15 100.37-4.42 100.99-3.7 102.69-3.7L102.69-3.7Q104.19-3.7 105.89-4.1L105.89-4.1 105.89 0.15Q103.64 0.65 101.89 0.65L101.89 0.65Q98.09 0.65 96.57-0.9 95.04-2.45 95.04-6.1L95.04-6.1 95.04-22.95 91.44-22.95 91.44-27.3 95.04-27.3 95.04-36.8 99.74-36.8 99.74-27.3 106.14-27.3 106.14-22.95ZM121.24-27.65Q125.64-27.65 127.94-26.18 130.24-24.7 130.99-22.23 131.74-19.75 131.74-16L131.74-16 131.74 0 127.04 0 127.04-2.75Q125.14-0.95 123.24-0.15 121.34 0.65 119.14 0.65L119.14 0.65Q116.54 0.65 114.44-0.48 112.34-1.6 111.11-3.73 109.89-5.85 109.89-8.75L109.89-8.75Q109.89-13.25 112.69-15.73 115.49-18.2 120.24-18.2L120.24-18.2Q123.99-18.2 126.99-16.55L126.99-16.55Q126.94-19 126.49-20.45 126.04-21.9 124.64-22.68 123.24-23.45 120.49-23.45L120.49-23.45 116.79-23.45 116.79-27.65 121.24-27.65ZM119.79-3.4Q121.49-3.4 123.36-4.2 125.24-5 127.04-6.6L127.04-6.6 127.04-12.9Q124.24-14.3 120.94-14.3L120.94-14.3Q118.29-14.3 116.49-13.03 114.69-11.75 114.69-8.75L114.69-8.75Q114.69-5.95 116.21-4.67 117.74-3.4 119.79-3.4L119.79-3.4ZM151.19 0.85Q144.74 0.8 141.26-3.15 137.79-7.1 137.79-13.85L137.79-13.85Q137.79-20.6 141.26-24.5 144.74-28.4 151.19-28.45L151.19-28.45Q153.44-28.45 155.06-28.13 156.69-27.8 158.54-27.05L158.54-27.05 158.54-22.5Q156.74-23.35 155.11-23.7 153.49-24.05 151.54-24.05L151.54-24.05Q146.89-24 144.79-21.28 142.69-18.55 142.69-13.9L142.69-13.9Q142.69-9.15 144.79-6.35 146.89-3.55 151.44-3.5L151.44-3.5Q154.99-3.5 159.19-5.65L159.19-5.65 160.69-1.55Q156.14 0.85 151.19 0.85L151.19 0.85ZM166.78-32.85L166.78-40.4 171.48-40.4 171.48-32.85 166.78-32.85ZM166.78 0L166.78-27.65 171.48-27.65 171.48 0 166.78 0ZM192.43 0.85Q188.03 0.85 184.96-1.07 181.88-3 180.33-6.33 178.78-9.65 178.78-13.8L178.78-13.8Q178.78-17.95 180.33-21.28 181.88-24.6 184.96-26.53 188.03-28.45 192.43-28.45L192.43-28.45Q196.83-28.45 199.91-26.53 202.98-24.6 204.51-21.28 206.03-17.95 206.03-13.8L206.03-13.8Q206.03-9.65 204.51-6.33 202.98-3 199.91-1.07 196.83 0.85 192.43 0.85L192.43 0.85ZM192.43-3.4Q196.58-3.4 198.86-6.3 201.13-9.2 201.13-13.8L201.13-13.8Q201.13-18.4 198.86-21.28 196.58-24.15 192.43-24.15L192.43-24.15Q188.28-24.15 185.98-21.28 183.68-18.4 183.68-13.8L183.68-13.8Q183.68-9.2 185.98-6.3 188.28-3.4 192.43-3.4L192.43-3.4ZM226.48-28.25Q231.58-28.25 234.05-25.55 236.53-22.85 236.53-16.65L236.53-16.65 236.53 0 231.83 0 231.83-16.65Q231.83-20.55 230.5-22.2 229.18-23.85 225.83-23.85L225.83-23.85Q221.93-23.85 218.03-20.45L218.03-20.45 218.03 0 213.33 0 213.33-27.65 218.03-27.65 218.03-24.7Q222.13-28.25 226.48-28.25L226.48-28.25ZM248.48-13.45Q248.58-8.85 250.78-6.1 252.98-3.35 257.78-3.35L257.78-3.35Q261.43-3.35 265.78-5.4L265.78-5.4 267.23-1.5Q262.68 0.85 257.38 0.85L257.38 0.85Q252.98 0.85 249.88-1 246.78-2.85 245.18-6.15 243.58-9.45 243.58-13.85L243.58-13.85Q243.58-18.5 245.25-21.78 246.93-25.05 249.78-26.75 252.63-28.45 256.18-28.45L256.18-28.45Q261.63-28.45 264.73-25.05 267.83-21.65 267.83-15.3L267.83-15.3 267.83-13.45 248.48-13.45ZM256.18-24.25Q249.98-24.25 248.78-17.4L248.78-17.4 262.88-17.4Q262.63-20.9 260.98-22.58 259.33-24.25 256.18-24.25L256.18-24.25ZM282.92 0.85Q279.87 0.85 277.52 0.35 275.17-0.15 272.62-1.35L272.62-1.35 272.62-6Q277.37-3.35 282.92-3.35L282.92-3.35Q285.72-3.35 286.95-4.48 288.17-5.6 288.17-7.45L288.17-7.45Q288.17-9.25 287.2-10.1 286.22-10.95 284.02-11.55L284.02-11.55 280.77-12.35Q277.27-13.2 275.27-15.05 273.27-16.9 273.27-20.5L273.27-20.5Q273.27-24.25 275.72-26.35 278.17-28.45 282.92-28.45L282.92-28.45Q285.37-28.45 287.47-27.98 289.57-27.5 291.67-26.65L291.67-26.65 291.67-22.25Q289.62-23.2 287.62-23.73 285.62-24.25 283.07-24.25L283.07-24.25Q280.42-24.25 279.25-23.23 278.07-22.2 278.07-20.65L278.07-20.65Q278.07-18.95 279.1-18.07 280.12-17.2 282.07-16.7L282.07-16.7 285.37-15.95Q287.87-15.35 289.5-14.45 291.12-13.55 292.05-11.93 292.97-10.3 292.97-7.6L292.97-7.6Q292.97-3.55 290.25-1.35 287.52 0.85 282.92 0.85L282.92 0.85ZM325.32-37.9Q337.72-37.9 337.72-26.6L337.72-26.6Q337.72-21.1 334.62-18.23 331.52-15.35 325.32-15.35L325.32-15.35 316.92-15.35 316.92 0 312.07 0 312.07-37.9 325.32-37.9ZM332.77-26.6Q332.77-30.3 330.92-31.98 329.07-33.65 325.32-33.65L325.32-33.65 316.92-33.65 316.92-19.65 325.32-19.65Q332.72-19.65 332.77-26.6L332.77-26.6ZM357.27-28.25L358.42-28.25 358.42-23.85 357.27-23.85Q352.97-23.85 348.92-20.4L348.92-20.4 348.92 0 344.22 0 344.22-27.65 348.92-27.65 348.92-24.55Q353.02-28.25 357.27-28.25L357.27-28.25ZM376.36 0.85Q371.96 0.85 368.89-1.07 365.81-3 364.26-6.33 362.71-9.65 362.71-13.8L362.71-13.8Q362.71-17.95 364.26-21.28 365.81-24.6 368.89-26.53 371.96-28.45 376.36-28.45L376.36-28.45Q380.76-28.45 383.84-26.53 386.91-24.6 388.44-21.28 389.96-17.95 389.96-13.8L389.96-13.8Q389.96-9.65 388.44-6.33 386.91-3 383.84-1.07 380.76 0.85 376.36 0.85L376.36 0.85ZM376.36-3.4Q380.51-3.4 382.79-6.3 385.06-9.2 385.06-13.8L385.06-13.8Q385.06-18.4 382.79-21.28 380.51-24.15 376.36-24.15L376.36-24.15Q372.21-24.15 369.91-21.28 367.61-18.4 367.61-13.8L367.61-13.8Q367.61-9.2 369.91-6.3 372.21-3.4 376.36-3.4L376.36-3.4Z" opacity="1" transform="matrix(1,0,0,1,0,0)" fill="black" class="wordmark-text-0" id="SvgjsPath1091"></path></svg></g></svg></g><g transform="matrix(1,0,0,1,0,52.42903199064084)"><svg viewBox="0 0 232.209792 12.979162273684208" height="12.979162273684208" width="232.209792"><g transform="matrix(1,0,0,1,0,0)"><svg width="232.209792" viewBox="4.35 -35.9 812.17 45.4" height="12.979162273684208" data-palette-color="url(#42c3c3b7-3dff-4010-ba6f-18a760faa11c)"></svg></g></svg></g></svg></g></svg></g><g><svg viewBox="0 0 93.29366250868685 90.39412447329723" height="90.39412447329723" width="93.29366250868685"><g><svg version="1.1" xmlns:rdf="http://www.w3.org/1999/02/22-rdf-syntax-ns#" xmlns:cc="http://creativecommons.org/ns#" xmlns:sodipodi="http://sodipodi.sourceforge.net/DTD/sodipodi-0.dtd" xmlns:dc="http://purl.org/dc/elements/1.1/" xmlns:inkscape="http://www.inkscape.org/namespaces/inkscape" xmlns:svg="http://www.w3.org/2000/svg" xmlns="http://www.w3.org/2000/svg" xmlns:xlink="http://www.w3.org/1999/xlink" x="0" y="0" viewBox="0 1.554 100.00099999999999 96.893" enable-background="new 0 1.554 100 96.893" xml:space="preserve" width="93.29366250868685" height="90.39412447329723" class="icon-icon-0" data-fill-palette-color="accent" id="SvgjsSvg1090"><path d="M31.356 1.554H14.548C6.572 1.554 0 8.126 0 16.102v16.808c0 7.976 6.572 14.478 14.548 14.478h16.808c7.976 0 14.478-6.501 14.478-14.478V16.102C45.833 8.126 39.332 1.554 31.356 1.554zM37.429 32.909c0 3.437-2.636 6.074-6.073 6.074H14.548c-3.436 0-6.073-2.637-6.073-6.074V16.102c0-3.437 2.637-6.074 6.073-6.074h16.808c3.437 0 6.073 2.637 6.073 6.074V32.909z" fill="white"></path><path d="M77.119 47.387C89.711 47.387 100 37.098 100 24.505c0-12.592-10.289-22.881-22.881-22.881-12.593 0-22.882 10.29-22.882 22.881C54.237 37.098 64.526 47.387 77.119 47.387zM77.119 10.028c8.021 0 14.406 6.457 14.406 14.478 0 8.021-6.386 14.407-14.406 14.407-8.021 0-14.479-6.385-14.479-14.407C62.641 16.484 69.098 10.028 77.119 10.028z" fill="white"></path><path d="M85.522 52.613H68.715c-7.976 0-14.549 6.571-14.549 14.547v16.738c0 7.976 6.573 14.548 14.549 14.548h16.808c7.976 0 14.478-6.572 14.478-14.548V67.16C100 59.185 93.498 52.613 85.522 52.613zM91.596 83.898c0 3.437-2.637 6.145-6.073 6.145H68.715c-3.437 0-6.074-2.708-6.074-6.145V67.161c0-3.437 2.638-6.073 6.074-6.073h16.808c3.437 0 6.073 2.637 6.073 6.073V83.898z" fill="white"></path><path d="M22.952 52.684c-12.592 0-22.881 10.289-22.881 22.882 0 12.592 10.29 22.881 22.881 22.881s22.881-10.289 22.881-22.881C45.833 62.973 35.544 52.684 22.952 52.684zM22.952 89.973c-8.021 0-14.407-6.387-14.407-14.407 0-8.021 6.386-14.478 14.407-14.478s14.407 6.456 14.407 14.478C37.359 83.586 30.973 89.973 22.952 89.973z" fill="white"></path></svg></g></svg></g></svg></g><defs><mask></mask></defs><mask><g id="SvgjsG1089"><svg viewBox="0 0 395.52 71.67351544991297" height="71.67351544991297" width="395.52"><g><svg viewBox="0 0 498.8269919125605 90.39412447329723" height="71.67351544991297" width="395.52"><g transform="matrix(1,0,0,1,103.3069919125605,12.492965104486089)"><svg viewBox="0 0 395.52 65.40819426432505" height="65.40819426432505" width="395.52"><g id="SvgjsG1088"><svg viewBox="0 0 395.52 65.40819426432505" height="65.40819426432505" width="395.52" id="SvgjsSvg1087"><g><svg viewBox="0 0 395.52 42.41570258676719" height="42.41570258676719" width="395.52"><g transform="matrix(1,0,0,1,0,0)"><svg width="395.52" viewBox="5.35 -40.4 384.60999999999996 41.25" height="42.41570258676719" data-palette-color="#6ee2f5"><path d="M5.35 0L5.35-37.9 10.2-37.9 10.2 0 5.35 0ZM33.2-28.25Q38.3-28.25 40.77-25.55 43.25-22.85 43.25-16.65L43.25-16.65 43.25 0 38.55 0 38.55-16.65Q38.55-20.55 37.22-22.2 35.9-23.85 32.55-23.85L32.55-23.85Q28.65-23.85 24.75-20.45L24.75-20.45 24.75 0 20.05 0 20.05-27.65 24.75-27.65 24.75-24.7Q28.85-28.25 33.2-28.25L33.2-28.25ZM70-27.65L74.9-27.65 64.45 0.45 59.05 0.45 48.5-27.65 53.4-27.65 61.75-4.75 70-27.65ZM80.39-32.85L80.39-40.4 85.09-40.4 85.09-32.85 80.39-32.85ZM80.39 0L80.39-27.65 85.09-27.65 85.09 0 80.39 0ZM106.14-22.95L99.74-22.95 99.74-7.15Q99.74-5.15 100.37-4.42 100.99-3.7 102.69-3.7L102.69-3.7Q104.19-3.7 105.89-4.1L105.89-4.1 105.89 0.15Q103.64 0.65 101.89 0.65L101.89 0.65Q98.09 0.65 96.57-0.9 95.04-2.45 95.04-6.1L95.04-6.1 95.04-22.95 91.44-22.95 91.44-27.3 95.04-27.3 95.04-36.8 99.74-36.8 99.74-27.3 106.14-27.3 106.14-22.95ZM121.24-27.65Q125.64-27.65 127.94-26.18 130.24-24.7 130.99-22.23 131.74-19.75 131.74-16L131.74-16 131.74 0 127.04 0 127.04-2.75Q125.14-0.95 123.24-0.15 121.34 0.65 119.14 0.65L119.14 0.65Q116.54 0.65 114.44-0.48 112.34-1.6 111.11-3.73 109.89-5.85 109.89-8.75L109.89-8.75Q109.89-13.25 112.69-15.73 115.49-18.2 120.24-18.2L120.24-18.2Q123.99-18.2 126.99-16.55L126.99-16.55Q126.94-19 126.49-20.45 126.04-21.9 124.64-22.68 123.24-23.45 120.49-23.45L120.49-23.45 116.79-23.45 116.79-27.65 121.24-27.65ZM119.79-3.4Q121.49-3.4 123.36-4.2 125.24-5 127.04-6.6L127.04-6.6 127.04-12.9Q124.24-14.3 120.94-14.3L120.94-14.3Q118.29-14.3 116.49-13.03 114.69-11.75 114.69-8.75L114.69-8.75Q114.69-5.95 116.21-4.67 117.74-3.4 119.79-3.4L119.79-3.4ZM151.19 0.85Q144.74 0.8 141.26-3.15 137.79-7.1 137.79-13.85L137.79-13.85Q137.79-20.6 141.26-24.5 144.74-28.4 151.19-28.45L151.19-28.45Q153.44-28.45 155.06-28.13 156.69-27.8 158.54-27.05L158.54-27.05 158.54-22.5Q156.74-23.35 155.11-23.7 153.49-24.05 151.54-24.05L151.54-24.05Q146.89-24 144.79-21.28 142.69-18.55 142.69-13.9L142.69-13.9Q142.69-9.15 144.79-6.35 146.89-3.55 151.44-3.5L151.44-3.5Q154.99-3.5 159.19-5.65L159.19-5.65 160.69-1.55Q156.14 0.85 151.19 0.85L151.19 0.85ZM166.78-32.85L166.78-40.4 171.48-40.4 171.48-32.85 166.78-32.85ZM166.78 0L166.78-27.65 171.48-27.65 171.48 0 166.78 0ZM192.43 0.85Q188.03 0.85 184.96-1.07 181.88-3 180.33-6.33 178.78-9.65 178.78-13.8L178.78-13.8Q178.78-17.95 180.33-21.28 181.88-24.6 184.96-26.53 188.03-28.45 192.43-28.45L192.43-28.45Q196.83-28.45 199.91-26.53 202.98-24.6 204.51-21.28 206.03-17.95 206.03-13.8L206.03-13.8Q206.03-9.65 204.51-6.33 202.98-3 199.91-1.07 196.83 0.85 192.43 0.85L192.43 0.85ZM192.43-3.4Q196.58-3.4 198.86-6.3 201.13-9.2 201.13-13.8L201.13-13.8Q201.13-18.4 198.86-21.28 196.58-24.15 192.43-24.15L192.43-24.15Q188.28-24.15 185.98-21.28 183.68-18.4 183.68-13.8L183.68-13.8Q183.68-9.2 185.98-6.3 188.28-3.4 192.43-3.4L192.43-3.4ZM226.48-28.25Q231.58-28.25 234.05-25.55 236.53-22.85 236.53-16.65L236.53-16.65 236.53 0 231.83 0 231.83-16.65Q231.83-20.55 230.5-22.2 229.18-23.85 225.83-23.85L225.83-23.85Q221.93-23.85 218.03-20.45L218.03-20.45 218.03 0 213.33 0 213.33-27.65 218.03-27.65 218.03-24.7Q222.13-28.25 226.48-28.25L226.48-28.25ZM248.48-13.45Q248.58-8.85 250.78-6.1 252.98-3.35 257.78-3.35L257.78-3.35Q261.43-3.35 265.78-5.4L265.78-5.4 267.23-1.5Q262.68 0.85 257.38 0.85L257.38 0.85Q252.98 0.85 249.88-1 246.78-2.85 245.18-6.15 243.58-9.45 243.58-13.85L243.58-13.85Q243.58-18.5 245.25-21.78 246.93-25.05 249.78-26.75 252.63-28.45 256.18-28.45L256.18-28.45Q261.63-28.45 264.73-25.05 267.83-21.65 267.83-15.3L267.83-15.3 267.83-13.45 248.48-13.45ZM256.18-24.25Q249.98-24.25 248.78-17.4L248.78-17.4 262.88-17.4Q262.63-20.9 260.98-22.58 259.33-24.25 256.18-24.25L256.18-24.25ZM282.92 0.85Q279.87 0.85 277.52 0.35 275.17-0.15 272.62-1.35L272.62-1.35 272.62-6Q277.37-3.35 282.92-3.35L282.92-3.35Q285.72-3.35 286.95-4.48 288.17-5.6 288.17-7.45L288.17-7.45Q288.17-9.25 287.2-10.1 286.22-10.95 284.02-11.55L284.02-11.55 280.77-12.35Q277.27-13.2 275.27-15.05 273.27-16.9 273.27-20.5L273.27-20.5Q273.27-24.25 275.72-26.35 278.17-28.45 282.92-28.45L282.92-28.45Q285.37-28.45 287.47-27.98 289.57-27.5 291.67-26.65L291.67-26.65 291.67-22.25Q289.62-23.2 287.62-23.73 285.62-24.25 283.07-24.25L283.07-24.25Q280.42-24.25 279.25-23.23 278.07-22.2 278.07-20.65L278.07-20.65Q278.07-18.95 279.1-18.07 280.12-17.2 282.07-16.7L282.07-16.7 285.37-15.95Q287.87-15.35 289.5-14.45 291.12-13.55 292.05-11.93 292.97-10.3 292.97-7.6L292.97-7.6Q292.97-3.55 290.25-1.35 287.52 0.85 282.92 0.85L282.92 0.85ZM325.32-37.9Q337.72-37.9 337.72-26.6L337.72-26.6Q337.72-21.1 334.62-18.23 331.52-15.35 325.32-15.35L325.32-15.35 316.92-15.35 316.92 0 312.07 0 312.07-37.9 325.32-37.9ZM332.77-26.6Q332.77-30.3 330.92-31.98 329.07-33.65 325.32-33.65L325.32-33.65 316.92-33.65 316.92-19.65 325.32-19.65Q332.72-19.65 332.77-26.6L332.77-26.6ZM357.27-28.25L358.42-28.25 358.42-23.85 357.27-23.85Q352.97-23.85 348.92-20.4L348.92-20.4 348.92 0 344.22 0 344.22-27.65 348.92-27.65 348.92-24.55Q353.02-28.25 357.27-28.25L357.27-28.25ZM376.36 0.85Q371.96 0.85 368.89-1.07 365.81-3 364.26-6.33 362.71-9.65 362.71-13.8L362.71-13.8Q362.71-17.95 364.26-21.28 365.81-24.6 368.89-26.53 371.96-28.45 376.36-28.45L376.36-28.45Q380.76-28.45 383.84-26.53 386.91-24.6 388.44-21.28 389.96-17.95 389.96-13.8L389.96-13.8Q389.96-9.65 388.44-6.33 386.91-3 383.84-1.07 380.76 0.85 376.36 0.85L376.36 0.85ZM376.36-3.4Q380.51-3.4 382.79-6.3 385.06-9.2 385.06-13.8L385.06-13.8Q385.06-18.4 382.79-21.28 380.51-24.15 376.36-24.15L376.36-24.15Q372.21-24.15 369.91-21.28 367.61-18.4 367.61-13.8L367.61-13.8Q367.61-9.2 369.91-6.3 372.21-3.4 376.36-3.4L376.36-3.4Z" opacity="1" transform="matrix(1,0,0,1,0,0)" fill="black" class="wordmark-text-0" id="SvgjsPath1086"></path></svg></g></svg></g><g transform="matrix(1,0,0,1,0,52.42903199064084)"><svg viewBox="0 0 232.209792 12.979162273684208" height="12.979162273684208" width="232.209792"><g transform="matrix(1,0,0,1,0,0)"><svg width="232.209792" viewBox="4.35 -35.9 812.17 45.4" height="12.979162273684208" data-palette-color="url(#42c3c3b7-3dff-4010-ba6f-18a760faa11c)"><path d="M25.9 0L5.5 0Q4.95 0 4.65-0.33 4.35-0.65 4.35-1.15L4.35-1.15 4.35-33.85Q4.35-34.35 4.65-34.68 4.95-35 5.5-35L5.5-35 8.15-35Q8.65-35 8.97-34.68 9.3-34.35 9.3-33.85L9.3-33.85 9.3-4.35 25.9-4.35Q26.45-4.35 26.78-4.03 27.1-3.7 27.1-3.15L27.1-3.15 27.1-1.15Q27.1-0.65 26.78-0.33 26.45 0 25.9 0L25.9 0ZM39.1 0.5L39.1 0.5Q36.6 0.5 34.55-0.5 32.5-1.5 31.25-3.2 30-4.9 30-7.05L30-7.05Q30-10.5 32.8-12.55 35.6-14.6 40.1-15.25L40.1-15.25 47.55-16.3 47.55-17.75Q47.55-20.15 46.17-21.5 44.8-22.85 41.7-22.85L41.7-22.85Q39.5-22.85 38.1-21.95 36.7-21.05 36.15-19.65L36.15-19.65Q35.85-18.9 35.1-18.9L35.1-18.9 32.85-18.9Q32.3-18.9 32.02-19.23 31.75-19.55 31.75-20L31.75-20Q31.75-20.75 32.32-21.85 32.9-22.95 34.1-24 35.3-25.05 37.17-25.78 39.05-26.5 41.75-26.5L41.75-26.5Q44.75-26.5 46.8-25.73 48.85-24.95 50.02-23.65 51.2-22.35 51.72-20.7 52.25-19.05 52.25-17.35L52.25-17.35 52.25-1.15Q52.25-0.65 51.92-0.33 51.6 0 51.1 0L51.1 0 48.8 0Q48.25 0 47.95-0.33 47.65-0.65 47.65-1.15L47.65-1.15 47.65-3.3Q47-2.4 45.9-1.53 44.8-0.65 43.15-0.08 41.5 0.5 39.1 0.5ZM40.15-3.25L40.15-3.25Q42.2-3.25 43.9-4.13 45.6-5 46.57-6.85 47.55-8.7 47.55-11.5L47.55-11.5 47.55-12.9 41.75-12.05Q38.2-11.55 36.4-10.38 34.6-9.2 34.6-7.4L34.6-7.4Q34.6-6 35.42-5.08 36.25-4.15 37.52-3.7 38.8-3.25 40.15-3.25ZM68.45 0.5L68.45 0.5Q65.65 0.5 63.65-0.2 61.65-0.9 60.4-1.9 59.15-2.9 58.52-3.9 57.9-4.9 57.85-5.5L57.85-5.5Q57.8-6.05 58.2-6.35 58.6-6.65 59-6.65L59-6.65 61.25-6.65Q61.5-6.65 61.67-6.58 61.85-6.5 62.15-6.15L62.15-6.15Q62.8-5.45 63.6-4.75 64.4-4.05 65.57-3.6 66.75-3.15 68.5-3.15L68.5-3.15Q71.05-3.15 72.7-4.13 74.34-5.1 74.34-7L74.34-7Q74.34-8.25 73.67-9 73-9.75 71.27-10.35 69.55-10.95 66.55-11.6L66.55-11.6Q63.55-12.3 61.8-13.33 60.05-14.35 59.3-15.78 58.55-17.2 58.55-19L58.55-19Q58.55-20.85 59.65-22.58 60.75-24.3 62.87-25.4 65-26.5 68.2-26.5L68.2-26.5Q70.8-26.5 72.65-25.85 74.5-25.2 75.7-24.23 76.9-23.25 77.5-22.3 78.09-21.35 78.15-20.7L78.15-20.7Q78.2-20.2 77.84-19.88 77.5-19.55 77.05-19.55L77.05-19.55 74.95-19.55Q74.59-19.55 74.37-19.7 74.15-19.85 73.95-20.05L73.95-20.05Q73.45-20.7 72.77-21.35 72.09-22 71.02-22.43 69.95-22.85 68.2-22.85L68.2-22.85Q65.7-22.85 64.45-21.8 63.2-20.75 63.2-19.15L63.2-19.15Q63.2-18.2 63.75-17.45 64.3-16.7 65.84-16.1 67.4-15.5 70.45-14.8L70.45-14.8Q73.75-14.15 75.65-13.05 77.55-11.95 78.34-10.5 79.15-9.05 79.15-7.15L79.15-7.15Q79.15-5.05 77.95-3.3 76.75-1.55 74.34-0.53 71.95 0.5 68.45 0.5ZM100.74 0L98.34 0Q97.84 0 97.52-0.33 97.19-0.65 97.19-1.15L97.19-1.15 97.19-24.85Q97.19-25.35 97.52-25.68 97.84-26 98.34-26L98.34-26 100.59-26Q101.09-26 101.42-25.68 101.74-25.35 101.74-24.85L101.74-24.85 101.74-23.1Q102.89-24.65 104.64-25.58 106.39-26.5 108.84-26.5L108.84-26.5Q114.49-26.55 116.84-21.9L116.84-21.9Q117.99-24 120.19-25.25 122.39-26.5 125.19-26.5L125.19-26.5Q127.79-26.5 129.92-25.3 132.04-24.1 133.27-21.68 134.49-19.25 134.49-15.6L134.49-15.6 134.49-1.15Q134.49-0.65 134.17-0.33 133.84 0 133.34 0L133.34 0 130.99 0Q130.49 0 130.17-0.33 129.84-0.65 129.84-1.15L129.84-1.15 129.84-15.15Q129.84-17.95 129.04-19.55 128.24-21.15 126.89-21.8 125.54-22.45 123.94-22.45L123.94-22.45Q122.64-22.45 121.29-21.8 119.94-21.15 119.07-19.55 118.19-17.95 118.19-15.15L118.19-15.15 118.19-1.15Q118.19-0.65 117.87-0.33 117.54 0 117.04 0L117.04 0 114.69 0Q114.19 0 113.87-0.33 113.54-0.65 113.54-1.15L113.54-1.15 113.54-15.15Q113.54-17.95 112.69-19.55 111.84-21.15 110.49-21.8 109.14-22.45 107.64-22.45L107.64-22.45Q106.34-22.45 104.99-21.8 103.64-21.15 102.77-19.55 101.89-17.95 101.89-15.2L101.89-15.2 101.89-1.15Q101.89-0.65 101.57-0.33 101.24 0 100.74 0L100.74 0ZM152.04 0.5L152.04 0.5Q146.84 0.5 143.79-2.68 140.74-5.85 140.44-11.35L140.44-11.35Q140.39-12 140.39-13.03 140.39-14.05 140.44-14.7L140.44-14.7Q140.64-18.25 142.09-20.93 143.54-23.6 146.06-25.05 148.59-26.5 151.99-26.5L151.99-26.5Q155.79-26.5 158.36-24.9 160.94-23.3 162.29-20.35 163.64-17.4 163.64-13.45L163.64-13.45 163.64-12.6Q163.64-12.05 163.31-11.75 162.99-11.45 162.49-11.45L162.49-11.45 145.19-11.45Q145.19-11.4 145.19-11.25 145.19-11.1 145.19-11L145.19-11Q145.29-8.95 146.09-7.18 146.89-5.4 148.41-4.3 149.94-3.2 151.99-3.2L151.99-3.2Q153.79-3.2 154.99-3.75 156.19-4.3 156.94-4.98 157.69-5.65 157.94-6.05L157.94-6.05Q158.39-6.65 158.64-6.78 158.89-6.9 159.44-6.9L159.44-6.9 161.89-6.9Q162.34-6.9 162.66-6.63 162.99-6.35 162.94-5.85L162.94-5.85Q162.89-5.1 162.14-4.03 161.39-2.95 160.01-1.9 158.64-0.85 156.61-0.18 154.59 0.5 152.04 0.5ZM145.19-15.05L145.19-14.9 158.89-14.9 158.89-15.05Q158.89-17.3 158.06-19.05 157.24-20.8 155.69-21.83 154.14-22.85 151.99-22.85L151.99-22.85Q149.84-22.85 148.31-21.83 146.79-20.8 145.99-19.05 145.19-17.3 145.19-15.05L145.19-15.05ZM166.34 9.5L165.38 9.5Q164.88 9.5 164.56 9.18 164.24 8.85 164.24 8.35L164.24 8.35 164.24 6.65Q164.24 6.15 164.56 5.83 164.88 5.5 165.38 5.5L165.38 5.5 166.09 5.5Q167.88 5.5 168.74 4.83 169.59 4.15 169.86 3.03 170.13 1.9 170.13 0.55L170.13 0.55 170.13-24.85Q170.13-25.35 170.46-25.68 170.78-26 171.28-26L171.28-26 173.74-26Q174.24-26 174.56-25.68 174.88-25.35 174.88-24.85L174.88-24.85 174.88 0.6Q174.88 3.25 174.06 5.25 173.24 7.25 171.38 8.38 169.53 9.5 166.34 9.5L166.34 9.5ZM174.09-30.85L170.88-30.85Q170.38-30.85 170.06-31.18 169.74-31.5 169.74-32L169.74-32 169.74-34.7Q169.74-35.2 170.06-35.55 170.38-35.9 170.88-35.9L170.88-35.9 174.09-35.9Q174.59-35.9 174.94-35.55 175.28-35.2 175.28-34.7L175.28-34.7 175.28-32Q175.28-31.5 174.94-31.18 174.59-30.85 174.09-30.85L174.09-30.85ZM192.98 0.5L192.98 0.5Q189.18 0.5 186.63-0.95 184.08-2.4 182.73-4.98 181.38-7.55 181.23-10.85L181.23-10.85Q181.18-11.7 181.18-13.03 181.18-14.35 181.23-15.15L181.23-15.15Q181.38-18.5 182.76-21.05 184.13-23.6 186.68-25.05 189.23-26.5 192.98-26.5L192.98-26.5Q196.73-26.5 199.28-25.05 201.83-23.6 203.21-21.05 204.58-18.5 204.73-15.15L204.73-15.15Q204.78-14.35 204.78-13.03 204.78-11.7 204.73-10.85L204.73-10.85Q204.58-7.55 203.23-4.98 201.88-2.4 199.33-0.95 196.78 0.5 192.98 0.5ZM192.98-3.35L192.98-3.35Q196.08-3.35 197.93-5.33 199.78-7.3 199.93-11.1L199.93-11.1Q199.98-11.85 199.98-13 199.98-14.15 199.93-14.9L199.93-14.9Q199.78-18.7 197.93-20.68 196.08-22.65 192.98-22.65L192.98-22.65Q189.88-22.65 188.01-20.68 186.13-18.7 186.03-14.9L186.03-14.9Q185.98-14.15 185.98-13 185.98-11.85 186.03-11.1L186.03-11.1Q186.13-7.3 188.01-5.33 189.88-3.35 192.98-3.35ZM214.63 0L212.18 0Q211.68 0 211.35-0.33 211.03-0.65 211.03-1.15L211.03-1.15 211.03-24.8Q211.03-25.3 211.35-25.65 211.68-26 212.18-26L212.18-26 214.48-26Q214.98-26 215.33-25.65 215.68-25.3 215.68-24.8L215.68-24.8 215.68-22.6Q216.68-24.3 218.43-25.15 220.18-26 222.68-26L222.68-26 224.63-26Q225.13-26 225.45-25.68 225.78-25.35 225.78-24.85L225.78-24.85 225.78-22.8Q225.78-22.3 225.45-22 225.13-21.7 224.63-21.7L224.63-21.7 221.63-21.7Q218.93-21.7 217.38-20.13 215.83-18.55 215.83-15.85L215.83-15.85 215.83-1.15Q215.83-0.65 215.48-0.33 215.13 0 214.63 0L214.63 0ZM240.43 0.5L240.43 0.5Q235.23 0.5 232.18-2.68 229.13-5.85 228.83-11.35L228.83-11.35Q228.78-12 228.78-13.03 228.78-14.05 228.83-14.7L228.83-14.7Q229.03-18.25 230.48-20.93 231.93-23.6 234.45-25.05 236.98-26.5 240.38-26.5L240.38-26.5Q244.18-26.5 246.75-24.9 249.33-23.3 250.68-20.35 252.03-17.4 252.03-13.45L252.03-13.45 252.03-12.6Q252.03-12.05 251.7-11.75 251.38-11.45 250.88-11.45L250.88-11.45 233.58-11.45Q233.58-11.4 233.58-11.25 233.58-11.1 233.58-11L233.58-11Q233.68-8.95 234.48-7.18 235.28-5.4 236.8-4.3 238.33-3.2 240.38-3.2L240.38-3.2Q242.18-3.2 243.38-3.75 244.58-4.3 245.33-4.98 246.08-5.65 246.33-6.05L246.33-6.05Q246.78-6.65 247.03-6.78 247.28-6.9 247.83-6.9L247.83-6.9 250.28-6.9Q250.73-6.9 251.05-6.63 251.38-6.35 251.33-5.85L251.33-5.85Q251.28-5.1 250.53-4.03 249.78-2.95 248.4-1.9 247.03-0.85 245-0.18 242.98 0.5 240.43 0.5ZM233.58-15.05L233.58-14.9 247.28-14.9 247.28-15.05Q247.28-17.3 246.45-19.05 245.63-20.8 244.08-21.83 242.53-22.85 240.38-22.85L240.38-22.85Q238.23-22.85 236.7-21.83 235.18-20.8 234.38-19.05 233.58-17.3 233.58-15.05L233.58-15.05ZM267.02 0.5L267.02 0.5Q264.22 0.5 262.22-0.2 260.22-0.9 258.97-1.9 257.72-2.9 257.1-3.9 256.47-4.9 256.43-5.5L256.43-5.5Q256.38-6.05 256.77-6.35 257.18-6.65 257.57-6.65L257.57-6.65 259.82-6.65Q260.07-6.65 260.25-6.58 260.43-6.5 260.72-6.15L260.72-6.15Q261.38-5.45 262.18-4.75 262.97-4.05 264.15-3.6 265.32-3.15 267.07-3.15L267.07-3.15Q269.63-3.15 271.27-4.13 272.93-5.1 272.93-7L272.93-7Q272.93-8.25 272.25-9 271.57-9.75 269.85-10.35 268.13-10.95 265.13-11.6L265.13-11.6Q262.13-12.3 260.38-13.33 258.63-14.35 257.88-15.78 257.13-17.2 257.13-19L257.13-19Q257.13-20.85 258.22-22.58 259.32-24.3 261.45-25.4 263.57-26.5 266.77-26.5L266.77-26.5Q269.38-26.5 271.22-25.85 273.07-25.2 274.27-24.23 275.47-23.25 276.07-22.3 276.68-21.35 276.72-20.7L276.72-20.7Q276.77-20.2 276.43-19.88 276.07-19.55 275.63-19.55L275.63-19.55 273.52-19.55Q273.18-19.55 272.95-19.7 272.72-19.85 272.52-20.05L272.52-20.05Q272.02-20.7 271.35-21.35 270.68-22 269.6-22.43 268.52-22.85 266.77-22.85L266.77-22.85Q264.27-22.85 263.02-21.8 261.77-20.75 261.77-19.15L261.77-19.15Q261.77-18.2 262.32-17.45 262.88-16.7 264.43-16.1 265.97-15.5 269.02-14.8L269.02-14.8Q272.32-14.15 274.22-13.05 276.13-11.95 276.93-10.5 277.72-9.05 277.72-7.15L277.72-7.15Q277.72-5.05 276.52-3.3 275.32-1.55 272.93-0.53 270.52 0.5 267.02 0.5ZM299.32 0L296.92 0Q296.42 0 296.09-0.33 295.77-0.65 295.77-1.15L295.77-1.15 295.77-24.85Q295.77-25.35 296.09-25.68 296.42-26 296.92-26L296.92-26 299.32-26Q299.82-26 300.14-25.68 300.47-25.35 300.47-24.85L300.47-24.85 300.47-1.15Q300.47-0.65 300.14-0.33 299.82 0 299.32 0L299.32 0ZM299.67-30.85L296.52-30.85Q296.02-30.85 295.69-31.18 295.37-31.5 295.37-32L295.37-32 295.37-34.7Q295.37-35.2 295.69-35.55 296.02-35.9 296.52-35.9L296.52-35.9 299.67-35.9Q300.17-35.9 300.52-35.55 300.87-35.2 300.87-34.7L300.87-34.7 300.87-32Q300.87-31.5 300.52-31.18 300.17-30.85 299.67-30.85L299.67-30.85ZM317.37 0.5L317.37 0.5Q314.62 0.5 312.62-0.48 310.62-1.45 309.34-3.13 308.07-4.8 307.44-6.95 306.82-9.1 306.72-11.5L306.72-11.5Q306.67-12.3 306.67-13 306.67-13.7 306.72-14.5L306.72-14.5Q306.82-16.85 307.44-19 308.07-21.15 309.34-22.85 310.62-24.55 312.62-25.53 314.62-26.5 317.37-26.5L317.37-26.5Q320.32-26.5 322.27-25.45 324.22-24.4 325.47-22.85L325.47-22.85 325.47-34.35Q325.47-34.85 325.79-35.18 326.12-35.5 326.62-35.5L326.62-35.5 329.02-35.5Q329.52-35.5 329.84-35.18 330.17-34.85 330.17-34.35L330.17-34.35 330.17-1.15Q330.17-0.65 329.84-0.33 329.52 0 329.02 0L329.02 0 326.77 0Q326.22 0 325.92-0.33 325.62-0.65 325.62-1.15L325.62-1.15 325.62-3.25Q324.37-1.65 322.37-0.58 320.37 0.5 317.37 0.5ZM318.42-3.55L318.42-3.55Q320.92-3.55 322.42-4.7 323.92-5.85 324.67-7.63 325.42-9.4 325.47-11.25L325.47-11.25Q325.52-12.05 325.52-13.18 325.52-14.3 325.47-15.1L325.47-15.1Q325.42-16.85 324.64-18.55 323.87-20.25 322.34-21.35 320.82-22.45 318.42-22.45L318.42-22.45Q315.87-22.45 314.37-21.33 312.87-20.2 312.22-18.38 311.57-16.55 311.47-14.45L311.47-14.45Q311.42-13 311.47-11.55L311.47-11.55Q311.57-9.45 312.22-7.63 312.87-5.8 314.37-4.67 315.87-3.55 318.42-3.55ZM348.02 0.5L348.02 0.5Q342.81 0.5 339.77-2.68 336.72-5.85 336.42-11.35L336.42-11.35Q336.37-12 336.37-13.03 336.37-14.05 336.42-14.7L336.42-14.7Q336.62-18.25 338.06-20.93 339.52-23.6 342.04-25.05 344.56-26.5 347.97-26.5L347.97-26.5Q351.77-26.5 354.34-24.9 356.92-23.3 358.27-20.35 359.62-17.4 359.62-13.45L359.62-13.45 359.62-12.6Q359.62-12.05 359.29-11.75 358.97-11.45 358.47-11.45L358.47-11.45 341.17-11.45Q341.17-11.4 341.17-11.25 341.17-11.1 341.17-11L341.17-11Q341.27-8.95 342.06-7.18 342.87-5.4 344.39-4.3 345.92-3.2 347.97-3.2L347.97-3.2Q349.77-3.2 350.97-3.75 352.17-4.3 352.92-4.98 353.67-5.65 353.92-6.05L353.92-6.05Q354.37-6.65 354.62-6.78 354.87-6.9 355.42-6.9L355.42-6.9 357.87-6.9Q358.31-6.9 358.64-6.63 358.97-6.35 358.92-5.85L358.92-5.85Q358.87-5.1 358.12-4.03 357.37-2.95 355.99-1.9 354.62-0.85 352.59-0.18 350.56 0.5 348.02 0.5ZM341.17-15.05L341.17-14.9 354.87-14.9 354.87-15.05Q354.87-17.3 354.04-19.05 353.22-20.8 351.67-21.83 350.12-22.85 347.97-22.85L347.97-22.85Q345.81-22.85 344.29-21.83 342.77-20.8 341.97-19.05 341.17-17.3 341.17-15.05L341.17-15.05ZM372.86 0.5L372.86 0.5Q370.36 0.5 368.31-0.5 366.26-1.5 365.01-3.2 363.76-4.9 363.76-7.05L363.76-7.05Q363.76-10.5 366.56-12.55 369.36-14.6 373.86-15.25L373.86-15.25 381.31-16.3 381.31-17.75Q381.31-20.15 379.94-21.5 378.56-22.85 375.46-22.85L375.46-22.85Q373.26-22.85 371.86-21.95 370.46-21.05 369.91-19.65L369.91-19.65Q369.61-18.9 368.86-18.9L368.86-18.9 366.61-18.9Q366.06-18.9 365.79-19.23 365.51-19.55 365.51-20L365.51-20Q365.51-20.75 366.09-21.85 366.66-22.95 367.86-24 369.06-25.05 370.94-25.78 372.81-26.5 375.51-26.5L375.51-26.5Q378.51-26.5 380.56-25.73 382.61-24.95 383.79-23.65 384.96-22.35 385.49-20.7 386.01-19.05 386.01-17.35L386.01-17.35 386.01-1.15Q386.01-0.65 385.69-0.33 385.36 0 384.86 0L384.86 0 382.56 0Q382.01 0 381.71-0.33 381.41-0.65 381.41-1.15L381.41-1.15 381.41-3.3Q380.76-2.4 379.66-1.53 378.56-0.65 376.91-0.08 375.26 0.5 372.86 0.5ZM373.91-3.25L373.91-3.25Q375.96-3.25 377.66-4.13 379.36-5 380.34-6.85 381.31-8.7 381.31-11.5L381.31-11.5 381.31-12.9 375.51-12.05Q371.96-11.55 370.16-10.38 368.36-9.2 368.36-7.4L368.36-7.4Q368.36-6 369.19-5.08 370.01-4.15 371.29-3.7 372.56-3.25 373.91-3.25ZM402.21 0.5L402.21 0.5Q399.41 0.5 397.41-0.2 395.41-0.9 394.16-1.9 392.91-2.9 392.29-3.9 391.66-4.9 391.61-5.5L391.61-5.5Q391.56-6.05 391.96-6.35 392.36-6.65 392.76-6.65L392.76-6.65 395.01-6.65Q395.26-6.65 395.44-6.58 395.61-6.5 395.91-6.15L395.91-6.15Q396.56-5.45 397.36-4.75 398.16-4.05 399.34-3.6 400.51-3.15 402.26-3.15L402.26-3.15Q404.81-3.15 406.46-4.13 408.11-5.1 408.11-7L408.11-7Q408.11-8.25 407.44-9 406.76-9.75 405.04-10.35 403.31-10.95 400.31-11.6L400.31-11.6Q397.31-12.3 395.56-13.33 393.81-14.35 393.06-15.78 392.31-17.2 392.31-19L392.31-19Q392.31-20.85 393.41-22.58 394.51-24.3 396.64-25.4 398.76-26.5 401.96-26.5L401.96-26.5Q404.56-26.5 406.41-25.85 408.26-25.2 409.46-24.23 410.66-23.25 411.26-22.3 411.86-21.35 411.91-20.7L411.91-20.7Q411.96-20.2 411.61-19.88 411.26-19.55 410.81-19.55L410.81-19.55 408.71-19.55Q408.36-19.55 408.14-19.7 407.91-19.85 407.71-20.05L407.71-20.05Q407.21-20.7 406.54-21.35 405.86-22 404.79-22.43 403.71-22.85 401.96-22.85L401.96-22.85Q399.46-22.85 398.21-21.8 396.96-20.75 396.96-19.15L396.96-19.15Q396.96-18.2 397.51-17.45 398.06-16.7 399.61-16.1 401.16-15.5 404.21-14.8L404.21-14.8Q407.51-14.15 409.41-13.05 411.31-11.95 412.11-10.5 412.91-9.05 412.91-7.15L412.91-7.15Q412.91-5.05 411.71-3.3 410.51-1.55 408.11-0.53 405.71 0.5 402.21 0.5ZM434.61 9.5L432.16 9.5Q431.66 9.5 431.33 9.18 431.01 8.85 431.01 8.35L431.01 8.35 431.01-24.85Q431.01-25.35 431.33-25.68 431.66-26 432.16-26L432.16-26 434.46-26Q434.96-26 435.28-25.68 435.61-25.35 435.61-24.85L435.61-24.85 435.61-22.65Q436.81-24.3 438.81-25.4 440.81-26.5 443.81-26.5L443.81-26.5Q446.61-26.5 448.58-25.55 450.56-24.6 451.83-22.95 453.11-21.3 453.76-19.2 454.41-17.1 454.51-14.7L454.51-14.7Q454.56-13.9 454.56-13 454.56-12.1 454.51-11.3L454.51-11.3Q454.41-8.95 453.76-6.83 453.11-4.7 451.83-3.08 450.56-1.45 448.58-0.48 446.61 0.5 443.81 0.5L443.81 0.5Q440.91 0.5 438.93-0.58 436.96-1.65 435.71-3.25L435.71-3.25 435.71 8.35Q435.71 8.85 435.41 9.18 435.11 9.5 434.61 9.5L434.61 9.5ZM442.76-3.55L442.76-3.55Q445.36-3.55 446.83-4.67 448.31-5.8 448.96-7.63 449.61-9.45 449.71-11.55L449.71-11.55Q449.76-13 449.71-14.45L449.71-14.45Q449.61-16.55 448.96-18.38 448.31-20.2 446.83-21.33 445.36-22.45 442.76-22.45L442.76-22.45Q440.31-22.45 438.78-21.3 437.26-20.15 436.53-18.38 435.81-16.6 435.71-14.75L435.71-14.75Q435.66-13.95 435.66-12.85 435.66-11.75 435.71-10.9L435.71-10.9Q435.76-9.15 436.53-7.45 437.31-5.75 438.86-4.65 440.41-3.55 442.76-3.55ZM468 0.5L468 0.5Q465.5 0.5 463.45-0.5 461.4-1.5 460.15-3.2 458.9-4.9 458.9-7.05L458.9-7.05Q458.9-10.5 461.7-12.55 464.5-14.6 469-15.25L469-15.25 476.45-16.3 476.45-17.75Q476.45-20.15 475.08-21.5 473.7-22.85 470.6-22.85L470.6-22.85Q468.4-22.85 467-21.95 465.6-21.05 465.05-19.65L465.05-19.65Q464.75-18.9 464-18.9L464-18.9 461.75-18.9Q461.2-18.9 460.93-19.23 460.65-19.55 460.65-20L460.65-20Q460.65-20.75 461.23-21.85 461.8-22.95 463-24 464.2-25.05 466.08-25.78 467.95-26.5 470.65-26.5L470.65-26.5Q473.65-26.5 475.7-25.73 477.75-24.95 478.93-23.65 480.1-22.35 480.63-20.7 481.15-19.05 481.15-17.35L481.15-17.35 481.15-1.15Q481.15-0.65 480.83-0.33 480.5 0 480 0L480 0 477.7 0Q477.15 0 476.85-0.33 476.55-0.65 476.55-1.15L476.55-1.15 476.55-3.3Q475.9-2.4 474.8-1.53 473.7-0.65 472.05-0.08 470.4 0.5 468 0.5ZM469.05-3.25L469.05-3.25Q471.1-3.25 472.8-4.13 474.5-5 475.48-6.85 476.45-8.7 476.45-11.5L476.45-11.5 476.45-12.9 470.65-12.05Q467.1-11.55 465.3-10.38 463.5-9.2 463.5-7.4L463.5-7.4Q463.5-6 464.33-5.08 465.15-4.15 466.43-3.7 467.7-3.25 469.05-3.25ZM491.95 0L489.5 0Q489 0 488.68-0.33 488.35-0.65 488.35-1.15L488.35-1.15 488.35-24.8Q488.35-25.3 488.68-25.65 489-26 489.5-26L489.5-26 491.8-26Q492.3-26 492.65-25.65 493-25.3 493-24.8L493-24.8 493-22.6Q494-24.3 495.75-25.15 497.5-26 500-26L500-26 501.95-26Q502.45-26 502.78-25.68 503.1-25.35 503.1-24.85L503.1-24.85 503.1-22.8Q503.1-22.3 502.78-22 502.45-21.7 501.95-21.7L501.95-21.7 498.95-21.7Q496.25-21.7 494.7-20.13 493.15-18.55 493.15-15.85L493.15-15.85 493.15-1.15Q493.15-0.65 492.8-0.33 492.45 0 491.95 0L491.95 0ZM514.6 0.5L514.6 0.5Q512.1 0.5 510.05-0.5 508-1.5 506.75-3.2 505.5-4.9 505.5-7.05L505.5-7.05Q505.5-10.5 508.3-12.55 511.1-14.6 515.6-15.25L515.6-15.25 523.05-16.3 523.05-17.75Q523.05-20.15 521.67-21.5 520.3-22.85 517.2-22.85L517.2-22.85Q515-22.85 513.6-21.95 512.2-21.05 511.65-19.65L511.65-19.65Q511.35-18.9 510.6-18.9L510.6-18.9 508.35-18.9Q507.8-18.9 507.52-19.23 507.25-19.55 507.25-20L507.25-20Q507.25-20.75 507.82-21.85 508.4-22.95 509.6-24 510.8-25.05 512.67-25.78 514.55-26.5 517.25-26.5L517.25-26.5Q520.25-26.5 522.3-25.73 524.35-24.95 525.52-23.65 526.7-22.35 527.22-20.7 527.75-19.05 527.75-17.35L527.75-17.35 527.75-1.15Q527.75-0.65 527.42-0.33 527.1 0 526.6 0L526.6 0 524.3 0Q523.75 0 523.45-0.33 523.15-0.65 523.15-1.15L523.15-1.15 523.15-3.3Q522.5-2.4 521.4-1.53 520.3-0.65 518.65-0.08 517 0.5 514.6 0.5ZM515.65-3.25L515.65-3.25Q517.7-3.25 519.4-4.13 521.1-5 522.07-6.85 523.05-8.7 523.05-11.5L523.05-11.5 523.05-12.9 517.25-12.05Q513.7-11.55 511.9-10.38 510.1-9.2 510.1-7.4L510.1-7.4Q510.1-6 510.92-5.08 511.75-4.15 513.02-3.7 514.3-3.25 515.65-3.25ZM560.79 0L557.34 0Q554.54 0 552.79-1.07 551.04-2.15 550.24-4.13 549.44-6.1 549.44-8.8L549.44-8.8 549.44-22 545.54-22Q545.04-22 544.72-22.33 544.39-22.65 544.39-23.15L544.39-23.15 544.39-24.85Q544.39-25.35 544.72-25.68 545.04-26 545.54-26L545.54-26 549.44-26 549.44-34.35Q549.44-34.85 549.77-35.18 550.09-35.5 550.59-35.5L550.59-35.5 552.94-35.5Q553.44-35.5 553.77-35.18 554.09-34.85 554.09-34.35L554.09-34.35 554.09-26 560.29-26Q560.84-26 561.14-25.68 561.44-25.35 561.44-24.85L561.44-24.85 561.44-23.15Q561.44-22.65 561.14-22.33 560.84-22 560.29-22L560.29-22 554.09-22 554.09-9.15Q554.09-6.8 554.89-5.45 555.69-4.1 557.74-4.1L557.74-4.1 560.79-4.1Q561.29-4.1 561.62-3.78 561.94-3.45 561.94-2.95L561.94-2.95 561.94-1.15Q561.94-0.65 561.62-0.33 561.29 0 560.79 0L560.79 0ZM576.44 0.5L576.44 0.5Q573.24 0.5 571.01-0.93 568.79-2.35 567.64-4.9 566.49-7.45 566.49-10.75L566.49-10.75 566.49-24.85Q566.49-25.35 566.81-25.68 567.14-26 567.64-26L567.64-26 570.14-26Q570.64-26 570.96-25.68 571.29-25.35 571.29-24.85L571.29-24.85 571.29-11Q571.29-3.55 577.79-3.55L577.79-3.55Q580.89-3.55 582.76-5.53 584.64-7.5 584.64-11L584.64-11 584.64-24.85Q584.64-25.35 584.96-25.68 585.29-26 585.79-26L585.79-26 588.29-26Q588.79-26 589.09-25.68 589.39-25.35 589.39-24.85L589.39-24.85 589.39-1.15Q589.39-0.65 589.09-0.33 588.79 0 588.29 0L588.29 0 585.94 0Q585.44 0 585.11-0.33 584.79-0.65 584.79-1.15L584.79-1.15 584.79-3.35Q583.44-1.6 581.51-0.55 579.59 0.5 576.44 0.5ZM605.84 0.5L605.84 0.5Q603.04 0.5 601.04-0.2 599.04-0.9 597.79-1.9 596.54-2.9 595.91-3.9 595.29-4.9 595.24-5.5L595.24-5.5Q595.19-6.05 595.59-6.35 595.99-6.65 596.39-6.65L596.39-6.65 598.64-6.65Q598.89-6.65 599.06-6.58 599.24-6.5 599.54-6.15L599.54-6.15Q600.19-5.45 600.99-4.75 601.79-4.05 602.96-3.6 604.14-3.15 605.89-3.15L605.89-3.15Q608.44-3.15 610.09-4.13 611.74-5.1 611.74-7L611.74-7Q611.74-8.25 611.06-9 610.39-9.75 608.66-10.35 606.94-10.95 603.94-11.6L603.94-11.6Q600.94-12.3 599.19-13.33 597.44-14.35 596.69-15.78 595.94-17.2 595.94-19L595.94-19Q595.94-20.85 597.04-22.58 598.14-24.3 600.26-25.4 602.39-26.5 605.59-26.5L605.59-26.5Q608.19-26.5 610.04-25.85 611.89-25.2 613.09-24.23 614.29-23.25 614.89-22.3 615.49-21.35 615.54-20.7L615.54-20.7Q615.59-20.2 615.24-19.88 614.89-19.55 614.44-19.55L614.44-19.55 612.34-19.55Q611.99-19.55 611.76-19.7 611.54-19.85 611.34-20.05L611.34-20.05Q610.84-20.7 610.16-21.35 609.49-22 608.41-22.43 607.34-22.85 605.59-22.85L605.59-22.85Q603.09-22.85 601.84-21.8 600.59-20.75 600.59-19.15L600.59-19.15Q600.59-18.2 601.14-17.45 601.69-16.7 603.24-16.1 604.79-15.5 607.84-14.8L607.84-14.8Q611.14-14.15 613.04-13.05 614.94-11.95 615.74-10.5 616.54-9.05 616.54-7.15L616.54-7.15Q616.54-5.05 615.34-3.3 614.14-1.55 611.74-0.53 609.34 0.5 605.84 0.5ZM644.98 0.5L644.98 0.5Q639.78 0.5 636.73-2.68 633.68-5.85 633.38-11.35L633.38-11.35Q633.33-12 633.33-13.03 633.33-14.05 633.38-14.7L633.38-14.7Q633.58-18.25 635.03-20.93 636.48-23.6 639.01-25.05 641.53-26.5 644.93-26.5L644.93-26.5Q648.73-26.5 651.31-24.9 653.88-23.3 655.23-20.35 656.58-17.4 656.58-13.45L656.58-13.45 656.58-12.6Q656.58-12.05 656.26-11.75 655.93-11.45 655.43-11.45L655.43-11.45 638.13-11.45Q638.13-11.4 638.13-11.25 638.13-11.1 638.13-11L638.13-11Q638.23-8.95 639.03-7.18 639.83-5.4 641.36-4.3 642.88-3.2 644.93-3.2L644.93-3.2Q646.73-3.2 647.93-3.75 649.13-4.3 649.88-4.98 650.63-5.65 650.88-6.05L650.88-6.05Q651.33-6.65 651.58-6.78 651.83-6.9 652.38-6.9L652.38-6.9 654.83-6.9Q655.28-6.9 655.61-6.63 655.93-6.35 655.88-5.85L655.88-5.85Q655.83-5.1 655.08-4.03 654.33-2.95 652.96-1.9 651.58-0.85 649.56-0.18 647.53 0.5 644.98 0.5ZM638.13-15.05L638.13-14.9 651.83-14.9 651.83-15.05Q651.83-17.3 651.01-19.05 650.18-20.8 648.63-21.83 647.08-22.85 644.93-22.85L644.93-22.85Q642.78-22.85 641.26-21.83 639.73-20.8 638.93-19.05 638.13-17.3 638.13-15.05L638.13-15.05ZM673.78 0L671.63 0Q670.88 0 670.45-0.35 670.03-0.7 669.78-1.25L669.78-1.25 660.53-24.45Q660.43-24.7 660.43-24.95L660.43-24.95Q660.43-25.4 660.73-25.7 661.03-26 661.48-26L661.48-26 663.88-26Q664.43-26 664.73-25.7 665.03-25.4 665.13-25.15L665.13-25.15 672.73-5.45 680.33-25.15Q680.43-25.4 680.7-25.7 680.98-26 681.53-26L681.53-26 683.98-26Q684.38-26 684.7-25.7 685.03-25.4 685.03-24.95L685.03-24.95Q685.03-24.7 684.93-24.45L684.93-24.45 675.63-1.25Q675.43-0.7 675-0.35 674.58 0 673.78 0L673.78 0ZM700.68 0.5L700.68 0.5Q695.48 0.5 692.43-2.68 689.38-5.85 689.08-11.35L689.08-11.35Q689.03-12 689.03-13.03 689.03-14.05 689.08-14.7L689.08-14.7Q689.28-18.25 690.73-20.93 692.18-23.6 694.7-25.05 697.23-26.5 700.63-26.5L700.63-26.5Q704.43-26.5 707-24.9 709.58-23.3 710.93-20.35 712.28-17.4 712.28-13.45L712.28-13.45 712.28-12.6Q712.28-12.05 711.95-11.75 711.63-11.45 711.13-11.45L711.13-11.45 693.83-11.45Q693.83-11.4 693.83-11.25 693.83-11.1 693.83-11L693.83-11Q693.93-8.95 694.73-7.18 695.53-5.4 697.05-4.3 698.58-3.2 700.63-3.2L700.63-3.2Q702.43-3.2 703.63-3.75 704.83-4.3 705.58-4.98 706.33-5.65 706.58-6.05L706.58-6.05Q707.03-6.65 707.28-6.78 707.53-6.9 708.08-6.9L708.08-6.9 710.53-6.9Q710.98-6.9 711.3-6.63 711.63-6.35 711.58-5.85L711.58-5.85Q711.53-5.1 710.78-4.03 710.03-2.95 708.65-1.9 707.28-0.85 705.25-0.18 703.23 0.5 700.68 0.5ZM693.83-15.05L693.83-14.9 707.53-14.9 707.53-15.05Q707.53-17.3 706.7-19.05 705.88-20.8 704.33-21.83 702.78-22.85 700.63-22.85L700.63-22.85Q698.48-22.85 696.95-21.83 695.43-20.8 694.63-19.05 693.83-17.3 693.83-15.05L693.83-15.05ZM721.92 0L719.42 0Q718.92 0 718.6-0.33 718.27-0.65 718.27-1.15L718.27-1.15 718.27-24.85Q718.27-25.35 718.6-25.68 718.92-26 719.42-26L719.42-26 721.77-26Q722.27-26 722.6-25.68 722.92-25.35 722.92-24.85L722.92-24.85 722.92-22.65Q724.22-24.35 726.2-25.43 728.17-26.5 731.27-26.5L731.27-26.5Q734.52-26.5 736.8-25.08 739.07-23.65 740.25-21.13 741.42-18.6 741.42-15.25L741.42-15.25 741.42-1.15Q741.42-0.65 741.1-0.33 740.77 0 740.27 0L740.27 0 737.77 0Q737.27 0 736.95-0.33 736.62-0.65 736.62-1.15L736.62-1.15 736.62-15Q736.62-18.5 734.92-20.48 733.22-22.45 729.92-22.45L729.92-22.45Q726.82-22.45 724.95-20.48 723.07-18.5 723.07-15L723.07-15 723.07-1.15Q723.07-0.65 722.75-0.33 722.42 0 721.92 0L721.92 0ZM762.17 0L758.72 0Q755.92 0 754.17-1.07 752.42-2.15 751.62-4.13 750.82-6.1 750.82-8.8L750.82-8.8 750.82-22 746.92-22Q746.42-22 746.1-22.33 745.77-22.65 745.77-23.15L745.77-23.15 745.77-24.85Q745.77-25.35 746.1-25.68 746.42-26 746.92-26L746.92-26 750.82-26 750.82-34.35Q750.82-34.85 751.15-35.18 751.47-35.5 751.97-35.5L751.97-35.5 754.32-35.5Q754.82-35.5 755.15-35.18 755.47-34.85 755.47-34.35L755.47-34.35 755.47-26 761.67-26Q762.22-26 762.52-25.68 762.82-25.35 762.82-24.85L762.82-24.85 762.82-23.15Q762.82-22.65 762.52-22.33 762.22-22 761.67-22L761.67-22 755.47-22 755.47-9.15Q755.47-6.8 756.27-5.45 757.07-4.1 759.12-4.1L759.12-4.1 762.17-4.1Q762.67-4.1 763-3.78 763.32-3.45 763.32-2.95L763.32-2.95 763.32-1.15Q763.32-0.65 763-0.33 762.67 0 762.17 0L762.17 0ZM778.77 0.5L778.77 0.5Q774.97 0.5 772.42-0.95 769.87-2.4 768.52-4.98 767.17-7.55 767.02-10.85L767.02-10.85Q766.97-11.7 766.97-13.03 766.97-14.35 767.02-15.15L767.02-15.15Q767.17-18.5 768.54-21.05 769.92-23.6 772.47-25.05 775.02-26.5 778.77-26.5L778.77-26.5Q782.52-26.5 785.07-25.05 787.62-23.6 788.99-21.05 790.37-18.5 790.52-15.15L790.52-15.15Q790.57-14.35 790.57-13.03 790.57-11.7 790.52-10.85L790.52-10.85Q790.37-7.55 789.02-4.98 787.67-2.4 785.12-0.95 782.57 0.5 778.77 0.5ZM778.77-3.35L778.77-3.35Q781.87-3.35 783.72-5.33 785.57-7.3 785.72-11.1L785.72-11.1Q785.77-11.85 785.77-13 785.77-14.15 785.72-14.9L785.72-14.9Q785.57-18.7 783.72-20.68 781.87-22.65 778.77-22.65L778.77-22.65Q775.67-22.65 773.79-20.68 771.92-18.7 771.82-14.9L771.82-14.9Q771.77-14.15 771.77-13 771.77-11.85 771.82-11.1L771.82-11.1Q771.92-7.3 773.79-5.33 775.67-3.35 778.77-3.35ZM805.82 0.5L805.82 0.5Q803.02 0.5 801.02-0.2 799.02-0.9 797.77-1.9 796.52-2.9 795.89-3.9 795.27-4.9 795.22-5.5L795.22-5.5Q795.17-6.05 795.57-6.35 795.97-6.65 796.37-6.65L796.37-6.65 798.62-6.65Q798.87-6.65 799.04-6.58 799.22-6.5 799.52-6.15L799.52-6.15Q800.17-5.45 800.97-4.75 801.77-4.05 802.94-3.6 804.12-3.15 805.87-3.15L805.87-3.15Q808.42-3.15 810.07-4.13 811.72-5.1 811.72-7L811.72-7Q811.72-8.25 811.04-9 810.37-9.75 808.64-10.35 806.92-10.95 803.92-11.6L803.92-11.6Q800.92-12.3 799.17-13.33 797.42-14.35 796.67-15.78 795.92-17.2 795.92-19L795.92-19Q795.92-20.85 797.02-22.58 798.12-24.3 800.24-25.4 802.37-26.5 805.57-26.5L805.57-26.5Q808.17-26.5 810.02-25.85 811.87-25.2 813.07-24.23 814.27-23.25 814.87-22.3 815.47-21.35 815.52-20.7L815.52-20.7Q815.57-20.2 815.22-19.88 814.87-19.55 814.42-19.55L814.42-19.55 812.32-19.55Q811.97-19.55 811.74-19.7 811.52-19.85 811.32-20.05L811.32-20.05Q810.82-20.7 810.14-21.35 809.47-22 808.39-22.43 807.32-22.85 805.57-22.85L805.57-22.85Q803.07-22.85 801.82-21.8 800.57-20.75 800.57-19.15L800.57-19.15Q800.57-18.2 801.12-17.45 801.67-16.7 803.22-16.1 804.77-15.5 807.82-14.8L807.82-14.8Q811.12-14.15 813.02-13.05 814.92-11.95 815.72-10.5 816.52-9.05 816.52-7.15L816.52-7.15Q816.52-5.05 815.32-3.3 814.12-1.55 811.72-0.53 809.32 0.5 805.82 0.5Z" opacity="1" transform="matrix(1,0,0,1,0,0)" fill="black" class="slogan-text-1" id="SvgjsPath1085"></path></svg></g></svg></g></svg></g></svg></g><g><svg viewBox="0 0 93.29366250868685 90.39412447329723" height="90.39412447329723" width="93.29366250868685"><g><svg version="1.1" xmlns:rdf="http://www.w3.org/1999/02/22-rdf-syntax-ns#" xmlns:cc="http://creativecommons.org/ns#" xmlns:sodipodi="http://sodipodi.sourceforge.net/DTD/sodipodi-0.dtd" xmlns:dc="http://purl.org/dc/elements/1.1/" xmlns:inkscape="http://www.inkscape.org/namespaces/inkscape" xmlns:svg="http://www.w3.org/2000/svg" xmlns="http://www.w3.org/2000/svg" xmlns:xlink="http://www.w3.org/1999/xlink" x="0" y="0" viewBox="0 1.554 100.00099999999999 96.893" enable-background="new 0 1.554 100 96.893" xml:space="preserve" width="93.29366250868685" height="90.39412447329723" class="icon-icon-0" data-fill-palette-color="accent" id="SvgjsSvg1084"><path d="M31.356 1.554H14.548C6.572 1.554 0 8.126 0 16.102v16.808c0 7.976 6.572 14.478 14.548 14.478h16.808c7.976 0 14.478-6.501 14.478-14.478V16.102C45.833 8.126 39.332 1.554 31.356 1.554zM37.429 32.909c0 3.437-2.636 6.074-6.073 6.074H14.548c-3.436 0-6.073-2.637-6.073-6.074V16.102c0-3.437 2.637-6.074 6.073-6.074h16.808c3.437 0 6.073 2.637 6.073 6.074V32.909z" fill="black"></path><path d="M77.119 47.387C89.711 47.387 100 37.098 100 24.505c0-12.592-10.289-22.881-22.881-22.881-12.593 0-22.882 10.29-22.882 22.881C54.237 37.098 64.526 47.387 77.119 47.387zM77.119 10.028c8.021 0 14.406 6.457 14.406 14.478 0 8.021-6.386 14.407-14.406 14.407-8.021 0-14.479-6.385-14.479-14.407C62.641 16.484 69.098 10.028 77.119 10.028z" fill="black"></path><path d="M85.522 52.613H68.715c-7.976 0-14.549 6.571-14.549 14.547v16.738c0 7.976 6.573 14.548 14.549 14.548h16.808c7.976 0 14.478-6.572 14.478-14.548V67.16C100 59.185 93.498 52.613 85.522 52.613zM91.596 83.898c0 3.437-2.637 6.145-6.073 6.145H68.715c-3.437 0-6.074-2.708-6.074-6.145V67.161c0-3.437 2.638-6.073 6.074-6.073h16.808c3.437 0 6.073 2.637 6.073 6.073V83.898z" fill="black"></path><path d="M22.952 52.684c-12.592 0-22.881 10.289-22.881 22.882 0 12.592 10.29 22.881 22.881 22.881s22.881-10.289 22.881-22.881C45.833 62.973 35.544 52.684 22.952 52.684zM22.952 89.973c-8.021 0-14.407-6.387-14.407-14.407 0-8.021 6.386-14.478 14.407-14.478s14.407 6.456 14.407 14.478C37.359 83.586 30.973 89.973 22.952 89.973z" fill="black"></path></svg></g></svg></g></svg></g><defs><mask></mask></defs></svg><rect width="395.52" height="71.67351544991297" fill="black" stroke="none" visibility="hidden"></rect></g></mask></svg><rect width="395.52" height="71.67351544991297" fill="black" stroke="none" visibility="hidden"></rect></g></mask><linearGradient x1="0" x2="1" y1="0.578" y2="0.595" id="a04654c8-7e6e-47be-a622-fb67d930c957"><stop stop-color="#6ee2f5" offset="0"></stop><stop stop-color="#6454f0" offset="1"></stop></linearGradient><rect width="395.52" height="71.67351544991297" fill="#ffffff" mask="url(#faec0572-43d7-414c-b021-0a4b01cef971)" data-fill-palette-color="accent"></rect></svg><rect width="395.52" height="71.67351544991297" fill="none" stroke="none" visibility="hidden"></rect></g></svg></g></svg>